<svg width="366" height="130" viewBox="0 0 366 130" fill="none" xmlns="http://www.w3.org/2000/svg">
<rect x="0.5" y="0.5" width="365" height="129" rx="4.5" fill="white"/>
<rect x="20" y="20" width="326" height="38" rx="4" fill="#007AFF"/>
<path d="M31.9429 45L28.7305 33.022H30.9551L33.0137 42.0117H33.1299L35.4956 33.022H37.3965L39.7871 42.0117H39.9033L41.9536 33.022H44.1616L40.9575 45H38.9487L36.5083 36.4253H36.3838L33.96 45H31.9429ZM46.2451 45V32.416H48.312V37.3218H48.4531C48.6689 36.8293 48.9954 36.4447 49.4326 36.168C49.8698 35.8913 50.4149 35.7529 51.0679 35.7529C51.743 35.7529 52.313 35.8857 52.7778 36.1514C53.2427 36.4115 53.5941 36.7933 53.832 37.2969C54.0755 37.8005 54.1973 38.4119 54.1973 39.1313V45H52.1304V39.6128C52.1304 38.9045 51.981 38.3732 51.6821 38.019C51.3888 37.6649 50.9295 37.4878 50.3042 37.4878C49.8947 37.4878 49.5405 37.5791 49.2417 37.7617C48.9429 37.9443 48.7132 38.2017 48.5527 38.5337C48.3923 38.8657 48.312 39.2586 48.312 39.7124V45H46.2451ZM60.5225 45.1826C59.6204 45.1826 58.8457 44.9917 58.1982 44.6099C57.5563 44.228 57.061 43.6857 56.7124 42.9829C56.3638 42.2801 56.1895 41.4473 56.1895 40.4844V40.4761C56.1895 39.5243 56.361 38.6942 56.7041 37.9858C57.0527 37.2775 57.5452 36.7297 58.1816 36.3423C58.818 35.9494 59.5651 35.7529 60.4229 35.7529C61.2861 35.7529 62.0277 35.9438 62.6475 36.3257C63.2728 36.702 63.7542 37.2305 64.0918 37.9111C64.4294 38.5918 64.5981 39.3887 64.5981 40.3018V40.9824H57.2271V39.5962H63.5854L62.606 40.8911V40.0693C62.606 39.4661 62.5146 38.9653 62.332 38.5669C62.1494 38.1685 61.8949 37.8696 61.5684 37.6704C61.2474 37.4712 60.8739 37.3716 60.4478 37.3716C60.0216 37.3716 59.6426 37.4767 59.3105 37.687C58.984 37.8918 58.724 38.1961 58.5303 38.6001C58.3421 38.9985 58.248 39.4883 58.248 40.0693V40.8994C58.248 41.4583 58.3421 41.937 58.5303 42.3354C58.7184 42.7284 58.984 43.0327 59.3271 43.2485C59.6758 43.4588 60.0881 43.564 60.564 43.564C60.9347 43.564 61.2529 43.5114 61.5186 43.4062C61.7897 43.2956 62.0083 43.1655 62.1743 43.0161C62.3403 42.8612 62.4565 42.7145 62.5229 42.5762L62.5479 42.5181H64.5068L64.4902 42.5928C64.4183 42.8861 64.2855 43.1849 64.0918 43.4893C63.9036 43.7881 63.6463 44.0675 63.3198 44.3276C62.9989 44.5822 62.606 44.7897 62.1411 44.9502C61.6763 45.1051 61.1367 45.1826 60.5225 45.1826ZM66.665 45V35.9272H68.7319V37.3218H68.873C69.028 36.8348 69.3047 36.4557 69.7031 36.1846C70.1071 35.9134 70.6079 35.7778 71.2056 35.7778C71.3605 35.7778 71.5127 35.7889 71.6621 35.811C71.8171 35.8276 71.9443 35.8498 72.0439 35.8774V37.7285C71.8779 37.6898 71.7091 37.6621 71.5376 37.6455C71.3716 37.6234 71.1973 37.6123 71.0146 37.6123C70.5553 37.6123 70.1541 37.6981 69.811 37.8696C69.4679 38.0412 69.2023 38.2874 69.0142 38.6084C68.826 38.9238 68.7319 39.2974 68.7319 39.729V45H66.665ZM77.3896 45.1826C76.4876 45.1826 75.7129 44.9917 75.0654 44.6099C74.4235 44.228 73.9282 43.6857 73.5796 42.9829C73.231 42.2801 73.0566 41.4473 73.0566 40.4844V40.4761C73.0566 39.5243 73.2282 38.6942 73.5713 37.9858C73.9199 37.2775 74.4124 36.7297 75.0488 36.3423C75.6852 35.9494 76.4323 35.7529 77.29 35.7529C78.1533 35.7529 78.8949 35.9438 79.5146 36.3257C80.14 36.702 80.6214 37.2305 80.959 37.9111C81.2965 38.5918 81.4653 39.3887 81.4653 40.3018V40.9824H74.0942V39.5962H80.4526L79.4731 40.8911V40.0693C79.4731 39.4661 79.3818 38.9653 79.1992 38.5669C79.0166 38.1685 78.762 37.8696 78.4355 37.6704C78.1146 37.4712 77.741 37.3716 77.3149 37.3716C76.8888 37.3716 76.5098 37.4767 76.1777 37.687C75.8512 37.8918 75.5911 38.1961 75.3975 38.6001C75.2093 38.9985 75.1152 39.4883 75.1152 40.0693V40.8994C75.1152 41.4583 75.2093 41.937 75.3975 42.3354C75.5856 42.7284 75.8512 43.0327 76.1943 43.2485C76.543 43.4588 76.9552 43.564 77.4312 43.564C77.8019 43.564 78.1201 43.5114 78.3857 43.4062C78.6569 43.2956 78.8755 43.1655 79.0415 43.0161C79.2075 42.8612 79.3237 42.7145 79.3901 42.5762L79.415 42.5181H81.374L81.3574 42.5928C81.2855 42.8861 81.1527 43.1849 80.959 43.4893C80.7708 43.7881 80.5135 44.0675 80.187 44.3276C79.866 44.5822 79.4731 44.7897 79.0083 44.9502C78.5435 45.1051 78.0039 45.1826 77.3896 45.1826ZM91.6338 45.0415C90.5934 45.0415 89.8436 44.8506 89.3843 44.4688C88.925 44.0869 88.6953 43.4616 88.6953 42.5928V37.5293H87.2842V35.9272H88.6953V33.7026H90.7954V35.9272H92.7046V37.5293H90.7954V42.103C90.7954 42.5513 90.8895 42.8805 91.0776 43.0908C91.2713 43.2956 91.5812 43.3979 92.0073 43.3979C92.1567 43.3979 92.2785 43.3952 92.3726 43.3896C92.4722 43.3786 92.5828 43.3675 92.7046 43.3564V44.9502C92.5607 44.9779 92.3947 45 92.2065 45.0166C92.0239 45.0332 91.833 45.0415 91.6338 45.0415ZM98.6064 45.1826C97.7044 45.1826 96.9269 44.9945 96.2739 44.6182C95.6209 44.2363 95.1174 43.694 94.7632 42.9912C94.4146 42.2884 94.2402 41.4473 94.2402 40.4678V40.4512C94.2402 39.4827 94.4173 38.6471 94.7715 37.9443C95.1257 37.236 95.6265 36.6937 96.2739 36.3174C96.9269 35.9411 97.7044 35.7529 98.6064 35.7529C99.5085 35.7529 100.283 35.9411 100.931 36.3174C101.584 36.6937 102.087 37.2332 102.441 37.936C102.796 38.6388 102.973 39.4772 102.973 40.4512V40.4678C102.973 41.4473 102.796 42.2884 102.441 42.9912C102.093 43.694 101.592 44.2363 100.939 44.6182C100.292 44.9945 99.514 45.1826 98.6064 45.1826ZM98.6064 43.5059C99.0824 43.5059 99.4863 43.3869 99.8184 43.1489C100.156 42.9054 100.413 42.5596 100.59 42.1113C100.767 41.6576 100.856 41.1125 100.856 40.4761V40.4595C100.856 39.8175 100.767 39.2725 100.59 38.8242C100.413 38.3704 100.156 38.0246 99.8184 37.7866C99.4863 37.5431 99.0824 37.4214 98.6064 37.4214C98.1305 37.4214 97.7238 37.5431 97.3862 37.7866C97.0487 38.0246 96.7913 38.3704 96.6143 38.8242C96.4372 39.2725 96.3486 39.8175 96.3486 40.4595V40.4761C96.3486 41.1125 96.4372 41.6576 96.6143 42.1113C96.7913 42.5651 97.0459 42.911 97.3779 43.1489C97.7155 43.3869 98.125 43.5059 98.6064 43.5059ZM107.032 41.2646L107.023 40.6753C107.001 40.2658 107.04 39.9061 107.14 39.5962C107.239 39.2808 107.408 38.9985 107.646 38.7495C107.889 38.495 108.199 38.2542 108.576 38.0273C108.919 37.8171 109.19 37.6206 109.389 37.438C109.594 37.2554 109.738 37.0617 109.821 36.8569C109.909 36.6522 109.954 36.4142 109.954 36.1431V36.1265C109.954 35.8332 109.882 35.5758 109.738 35.3545C109.594 35.1276 109.389 34.9478 109.124 34.8149C108.863 34.6821 108.556 34.6157 108.202 34.6157C107.854 34.6157 107.546 34.6849 107.281 34.8232C107.015 34.9616 106.805 35.158 106.65 35.4126C106.495 35.6616 106.409 35.9549 106.393 36.2925L106.376 36.3008L104.434 36.3091V36.2925C104.461 35.645 104.625 35.0667 104.923 34.5576C105.228 34.0485 105.665 33.6501 106.235 33.3623C106.805 33.069 107.499 32.9224 108.318 32.9224C109.076 32.9224 109.738 33.0579 110.302 33.3291C110.872 33.5947 111.315 33.9627 111.63 34.4331C111.946 34.9035 112.104 35.443 112.104 36.0518V36.0684C112.104 36.4889 112.034 36.8708 111.896 37.2139C111.763 37.557 111.567 37.8669 111.307 38.1436C111.047 38.4147 110.728 38.6637 110.352 38.8906C109.987 39.1009 109.702 39.2974 109.497 39.48C109.298 39.6626 109.157 39.8563 109.074 40.061C108.996 40.2658 108.958 40.5065 108.958 40.7832V41.2646H107.032ZM108.086 45.2075C107.671 45.2075 107.336 45.0913 107.082 44.8589C106.833 44.6209 106.708 44.3027 106.708 43.9043C106.708 43.5059 106.833 43.1904 107.082 42.958C107.336 42.7201 107.671 42.6011 108.086 42.6011C108.507 42.6011 108.841 42.7201 109.09 42.958C109.339 43.1904 109.464 43.5059 109.464 43.9043C109.464 44.3027 109.339 44.6209 109.09 44.8589C108.841 45.0913 108.507 45.2075 108.086 45.2075Z" fill="white"/>
<path d="M31.9429 100L28.7305 88.022H30.9551L33.0137 97.0117H33.1299L35.4956 88.022H37.3965L39.7871 97.0117H39.9033L41.9536 88.022H44.1616L40.9575 100H38.9487L36.5083 91.4253H36.3838L33.96 100H31.9429ZM46.2451 100V87.416H48.312V92.3218H48.4531C48.6689 91.8293 48.9954 91.4447 49.4326 91.168C49.8698 90.8913 50.4149 90.7529 51.0679 90.7529C51.743 90.7529 52.313 90.8857 52.7778 91.1514C53.2427 91.4115 53.5941 91.7933 53.832 92.2969C54.0755 92.8005 54.1973 93.4119 54.1973 94.1313V100H52.1304V94.6128C52.1304 93.9045 51.981 93.3732 51.6821 93.019C51.3888 92.6649 50.9295 92.4878 50.3042 92.4878C49.8947 92.4878 49.5405 92.5791 49.2417 92.7617C48.9429 92.9443 48.7132 93.2017 48.5527 93.5337C48.3923 93.8657 48.312 94.2586 48.312 94.7124V100H46.2451ZM60.5225 100.183C59.6204 100.183 58.8457 99.9917 58.1982 99.6099C57.5563 99.228 57.061 98.6857 56.7124 97.9829C56.3638 97.2801 56.1895 96.4473 56.1895 95.4844V95.4761C56.1895 94.5243 56.361 93.6942 56.7041 92.9858C57.0527 92.2775 57.5452 91.7297 58.1816 91.3423C58.818 90.9494 59.5651 90.7529 60.4229 90.7529C61.2861 90.7529 62.0277 90.9438 62.6475 91.3257C63.2728 91.702 63.7542 92.2305 64.0918 92.9111C64.4294 93.5918 64.5981 94.3887 64.5981 95.3018V95.9824H57.2271V94.5962H63.5854L62.606 95.8911V95.0693C62.606 94.4661 62.5146 93.9653 62.332 93.5669C62.1494 93.1685 61.8949 92.8696 61.5684 92.6704C61.2474 92.4712 60.8739 92.3716 60.4478 92.3716C60.0216 92.3716 59.6426 92.4767 59.3105 92.687C58.984 92.8918 58.724 93.1961 58.5303 93.6001C58.3421 93.9985 58.248 94.4883 58.248 95.0693V95.8994C58.248 96.4583 58.3421 96.937 58.5303 97.3354C58.7184 97.7284 58.984 98.0327 59.3271 98.2485C59.6758 98.4588 60.0881 98.564 60.564 98.564C60.9347 98.564 61.2529 98.5114 61.5186 98.4062C61.7897 98.2956 62.0083 98.1655 62.1743 98.0161C62.3403 97.8612 62.4565 97.7145 62.5229 97.5762L62.5479 97.5181H64.5068L64.4902 97.5928C64.4183 97.8861 64.2855 98.1849 64.0918 98.4893C63.9036 98.7881 63.6463 99.0675 63.3198 99.3276C62.9989 99.5822 62.606 99.7897 62.1411 99.9502C61.6763 100.105 61.1367 100.183 60.5225 100.183ZM66.665 100V90.9272H68.7319V92.3218H68.873C69.028 91.8348 69.3047 91.4557 69.7031 91.1846C70.1071 90.9134 70.6079 90.7778 71.2056 90.7778C71.3605 90.7778 71.5127 90.7889 71.6621 90.811C71.8171 90.8276 71.9443 90.8498 72.0439 90.8774V92.7285C71.8779 92.6898 71.7091 92.6621 71.5376 92.6455C71.3716 92.6234 71.1973 92.6123 71.0146 92.6123C70.5553 92.6123 70.1541 92.6981 69.811 92.8696C69.4679 93.0412 69.2023 93.2874 69.0142 93.6084C68.826 93.9238 68.7319 94.2974 68.7319 94.729V100H66.665ZM77.3896 100.183C76.4876 100.183 75.7129 99.9917 75.0654 99.6099C74.4235 99.228 73.9282 98.6857 73.5796 97.9829C73.231 97.2801 73.0566 96.4473 73.0566 95.4844V95.4761C73.0566 94.5243 73.2282 93.6942 73.5713 92.9858C73.9199 92.2775 74.4124 91.7297 75.0488 91.3423C75.6852 90.9494 76.4323 90.7529 77.29 90.7529C78.1533 90.7529 78.8949 90.9438 79.5146 91.3257C80.14 91.702 80.6214 92.2305 80.959 92.9111C81.2965 93.5918 81.4653 94.3887 81.4653 95.3018V95.9824H74.0942V94.5962H80.4526L79.4731 95.8911V95.0693C79.4731 94.4661 79.3818 93.9653 79.1992 93.5669C79.0166 93.1685 78.762 92.8696 78.4355 92.6704C78.1146 92.4712 77.741 92.3716 77.3149 92.3716C76.8888 92.3716 76.5098 92.4767 76.1777 92.687C75.8512 92.8918 75.5911 93.1961 75.3975 93.6001C75.2093 93.9985 75.1152 94.4883 75.1152 95.0693V95.8994C75.1152 96.4583 75.2093 96.937 75.3975 97.3354C75.5856 97.7284 75.8512 98.0327 76.1943 98.2485C76.543 98.4588 76.9552 98.564 77.4312 98.564C77.8019 98.564 78.1201 98.5114 78.3857 98.4062C78.6569 98.2956 78.8755 98.1655 79.0415 98.0161C79.2075 97.8612 79.3237 97.7145 79.3901 97.5762L79.415 97.5181H81.374L81.3574 97.5928C81.2855 97.8861 81.1527 98.1849 80.959 98.4893C80.7708 98.7881 80.5135 99.0675 80.187 99.3276C79.866 99.5822 79.4731 99.7897 79.0083 99.9502C78.5435 100.105 78.0039 100.183 77.3896 100.183ZM91.6338 100.042C90.5934 100.042 89.8436 99.8506 89.3843 99.4688C88.925 99.0869 88.6953 98.4616 88.6953 97.5928V92.5293H87.2842V90.9272H88.6953V88.7026H90.7954V90.9272H92.7046V92.5293H90.7954V97.103C90.7954 97.5513 90.8895 97.8805 91.0776 98.0908C91.2713 98.2956 91.5812 98.3979 92.0073 98.3979C92.1567 98.3979 92.2785 98.3952 92.3726 98.3896C92.4722 98.3786 92.5828 98.3675 92.7046 98.3564V99.9502C92.5607 99.9779 92.3947 100 92.2065 100.017C92.0239 100.033 91.833 100.042 91.6338 100.042ZM98.6064 100.183C97.7044 100.183 96.9269 99.9945 96.2739 99.6182C95.6209 99.2363 95.1174 98.694 94.7632 97.9912C94.4146 97.2884 94.2402 96.4473 94.2402 95.4678V95.4512C94.2402 94.4827 94.4173 93.6471 94.7715 92.9443C95.1257 92.236 95.6265 91.6937 96.2739 91.3174C96.9269 90.9411 97.7044 90.7529 98.6064 90.7529C99.5085 90.7529 100.283 90.9411 100.931 91.3174C101.584 91.6937 102.087 92.2332 102.441 92.936C102.796 93.6388 102.973 94.4772 102.973 95.4512V95.4678C102.973 96.4473 102.796 97.2884 102.441 97.9912C102.093 98.694 101.592 99.2363 100.939 99.6182C100.292 99.9945 99.514 100.183 98.6064 100.183ZM98.6064 98.5059C99.0824 98.5059 99.4863 98.3869 99.8184 98.1489C100.156 97.9054 100.413 97.5596 100.59 97.1113C100.767 96.6576 100.856 96.1125 100.856 95.4761V95.4595C100.856 94.8175 100.767 94.2725 100.59 93.8242C100.413 93.3704 100.156 93.0246 99.8184 92.7866C99.4863 92.5431 99.0824 92.4214 98.6064 92.4214C98.1305 92.4214 97.7238 92.5431 97.3862 92.7866C97.0487 93.0246 96.7913 93.3704 96.6143 93.8242C96.4372 94.2725 96.3486 94.8175 96.3486 95.4595V95.4761C96.3486 96.1125 96.4372 96.6576 96.6143 97.1113C96.7913 97.5651 97.0459 97.911 97.3779 98.1489C97.7155 98.3869 98.125 98.5059 98.6064 98.5059ZM107.032 96.2646L107.023 95.6753C107.001 95.2658 107.04 94.9061 107.14 94.5962C107.239 94.2808 107.408 93.9985 107.646 93.7495C107.889 93.495 108.199 93.2542 108.576 93.0273C108.919 92.8171 109.19 92.6206 109.389 92.438C109.594 92.2554 109.738 92.0617 109.821 91.8569C109.909 91.6522 109.954 91.4142 109.954 91.1431V91.1265C109.954 90.8332 109.882 90.5758 109.738 90.3545C109.594 90.1276 109.389 89.9478 109.124 89.8149C108.863 89.6821 108.556 89.6157 108.202 89.6157C107.854 89.6157 107.546 89.6849 107.281 89.8232C107.015 89.9616 106.805 90.158 106.65 90.4126C106.495 90.6616 106.409 90.9549 106.393 91.2925L106.376 91.3008L104.434 91.3091V91.2925C104.461 90.645 104.625 90.0667 104.923 89.5576C105.228 89.0485 105.665 88.6501 106.235 88.3623C106.805 88.069 107.499 87.9224 108.318 87.9224C109.076 87.9224 109.738 88.0579 110.302 88.3291C110.872 88.5947 111.315 88.9627 111.63 89.4331C111.946 89.9035 112.104 90.443 112.104 91.0518V91.0684C112.104 91.4889 112.034 91.8708 111.896 92.2139C111.763 92.557 111.567 92.8669 111.307 93.1436C111.047 93.4147 110.728 93.6637 110.352 93.8906C109.987 94.1009 109.702 94.2974 109.497 94.48C109.298 94.6626 109.157 94.8563 109.074 95.061C108.996 95.2658 108.958 95.5065 108.958 95.7832V96.2646H107.032ZM108.086 100.208C107.671 100.208 107.336 100.091 107.082 99.8589C106.833 99.6209 106.708 99.3027 106.708 98.9043C106.708 98.5059 106.833 98.1904 107.082 97.958C107.336 97.7201 107.671 97.6011 108.086 97.6011C108.507 97.6011 108.841 97.7201 109.09 97.958C109.339 98.1904 109.464 98.5059 109.464 98.9043C109.464 99.3027 109.339 99.6209 109.09 99.8589C108.841 100.091 108.507 100.208 108.086 100.208Z" fill="#007AFF"/>
<rect x="21" y="76" width="324" height="36" rx="3" stroke="#007AFF" stroke-width="2"/>
<rect x="0.5" y="0.5" width="365" height="129" rx="4.5" stroke="#9747FF" stroke-dasharray="10 5"/>
</svg>
