<svg width="366" height="130" viewBox="0 0 366 130" fill="none" xmlns="http://www.w3.org/2000/svg">
<rect x="0.5" y="0.5" width="365" height="129" rx="4.5" fill="white"/>
<rect x="20" y="20" width="326" height="38" rx="4" fill="#007AFF"/>
<path d="M29.4775 45V33.022H31.6191V43.1987H37.106V45H29.4775ZM42.6758 45.1826C41.7738 45.1826 40.999 44.9917 40.3516 44.6099C39.7096 44.228 39.2144 43.6857 38.8657 42.9829C38.5171 42.2801 38.3428 41.4473 38.3428 40.4844V40.4761C38.3428 39.5243 38.5143 38.6942 38.8574 37.9858C39.2061 37.2775 39.6986 36.7297 40.335 36.3423C40.9714 35.9494 41.7184 35.7529 42.5762 35.7529C43.4395 35.7529 44.181 35.9438 44.8008 36.3257C45.4261 36.702 45.9076 37.2305 46.2451 37.9111C46.5827 38.5918 46.7515 39.3887 46.7515 40.3018V40.9824H39.3804V39.5962H45.7388L44.7593 40.8911V40.0693C44.7593 39.4661 44.668 38.9653 44.4854 38.5669C44.3027 38.1685 44.0482 37.8696 43.7217 37.6704C43.4007 37.4712 43.0272 37.3716 42.6011 37.3716C42.175 37.3716 41.7959 37.4767 41.4639 37.687C41.1374 37.8918 40.8773 38.1961 40.6836 38.6001C40.4954 38.9985 40.4014 39.4883 40.4014 40.0693V40.8994C40.4014 41.4583 40.4954 41.937 40.6836 42.3354C40.8717 42.7284 41.1374 43.0327 41.4805 43.2485C41.8291 43.4588 42.2414 43.564 42.7173 43.564C43.0881 43.564 43.4062 43.5114 43.6719 43.4062C43.943 43.2956 44.1616 43.1655 44.3276 43.0161C44.4937 42.8612 44.6099 42.7145 44.6763 42.5762L44.7012 42.5181H46.6602L46.6436 42.5928C46.5716 42.8861 46.4388 43.1849 46.2451 43.4893C46.057 43.7881 45.7996 44.0675 45.4731 44.3276C45.1522 44.5822 44.7593 44.7897 44.2944 44.9502C43.8296 45.1051 43.29 45.1826 42.6758 45.1826ZM53.8652 45.1494C53.4391 45.1494 53.049 45.0885 52.6948 44.9668C52.3407 44.8395 52.028 44.6597 51.7568 44.4272C51.4912 44.1893 51.2754 43.9071 51.1094 43.5806H50.9683V45H48.9014V32.416H50.9683V37.3716H51.1094C51.2699 37.0451 51.4857 36.7629 51.7568 36.5249C52.028 36.2869 52.3434 36.1043 52.7031 35.9771C53.0628 35.8442 53.4502 35.7778 53.8652 35.7778C54.6289 35.7778 55.2874 35.9688 55.8408 36.3506C56.3997 36.7269 56.8314 37.2664 57.1357 37.9692C57.4401 38.6665 57.5923 39.4966 57.5923 40.4595V40.4761C57.5923 41.4279 57.4373 42.2552 57.1274 42.958C56.8231 43.6608 56.3914 44.2031 55.8325 44.585C55.2791 44.9613 54.6234 45.1494 53.8652 45.1494ZM53.2178 43.4062C53.6882 43.4062 54.0921 43.29 54.4297 43.0576C54.7673 42.8197 55.0273 42.4821 55.21 42.0449C55.3926 41.6077 55.4839 41.0848 55.4839 40.4761V40.4595C55.4839 39.8507 55.3926 39.3278 55.21 38.8906C55.0273 38.4479 54.7673 38.1104 54.4297 37.8779C54.0921 37.64 53.6882 37.521 53.2178 37.521C52.7529 37.521 52.349 37.64 52.0059 37.8779C51.6628 38.1159 51.3971 38.4535 51.209 38.8906C51.0264 39.3278 50.9351 39.8507 50.9351 40.4595V40.4761C50.9351 41.0793 51.0264 41.6022 51.209 42.0449C51.3971 42.4821 51.66 42.8197 51.9976 43.0576C52.3407 43.29 52.7474 43.4062 53.2178 43.4062ZM62.1328 45.1494C61.5628 45.1494 61.0509 45.0387 60.5972 44.8174C60.1489 44.596 59.7948 44.2834 59.5347 43.8794C59.2801 43.4699 59.1528 42.9884 59.1528 42.4351V42.4185C59.1528 41.8817 59.2856 41.4196 59.5513 41.0322C59.8169 40.6393 60.207 40.3322 60.7217 40.1108C61.2363 39.8895 61.8617 39.7594 62.5977 39.7207L65.9512 39.5132V40.8745L62.8882 41.0737C62.3071 41.1069 61.8783 41.2287 61.6016 41.439C61.3249 41.6493 61.1865 41.9425 61.1865 42.3188V42.3354C61.1865 42.7228 61.3332 43.0244 61.6265 43.2402C61.9253 43.4561 62.3044 43.564 62.7637 43.564C63.1787 43.564 63.5495 43.481 63.876 43.3149C64.2025 43.1489 64.4598 42.9248 64.6479 42.6426C64.8361 42.3548 64.9302 42.0311 64.9302 41.6714V38.7993C64.9302 38.3455 64.7863 37.9997 64.4985 37.7617C64.2108 37.5182 63.7847 37.3965 63.2202 37.3965C62.7498 37.3965 62.3652 37.4795 62.0664 37.6455C61.7676 37.806 61.5656 38.0356 61.4604 38.3345L61.4521 38.3677H59.5015L59.5098 38.293C59.5762 37.7839 59.7754 37.3384 60.1074 36.9565C60.4395 36.5747 60.8794 36.2786 61.4272 36.0684C61.9751 35.8581 62.606 35.7529 63.3198 35.7529C64.1056 35.7529 64.7697 35.8747 65.312 36.1182C65.8543 36.3561 66.2666 36.7048 66.5488 37.1641C66.8311 37.6178 66.9722 38.1629 66.9722 38.7993V45H64.9302V43.7549H64.7891C64.623 44.0426 64.4072 44.2917 64.1416 44.502C63.8815 44.7122 63.5827 44.8727 63.2451 44.9834C62.9076 45.0941 62.5368 45.1494 62.1328 45.1494ZM69.5371 45V32.416H71.604V45H69.5371ZM75.2397 45L72.1851 40.8828L73.7207 39.6211L77.7217 45H75.2397ZM71.4297 41.9951L71.355 39.6543H71.7451L75.0903 35.9272H77.481L73.5381 40.0693L72.5918 40.8081L71.4297 41.9951ZM85.1343 45V43.3398H88.6953C89.4867 43.3398 90.0871 43.1794 90.4966 42.8584C90.9061 42.5319 91.1108 42.0643 91.1108 41.4556V41.439C91.1108 41.035 91.0168 40.6947 90.8286 40.418C90.6405 40.1413 90.3582 39.9338 89.9819 39.7954C89.6112 39.6571 89.1519 39.5879 88.604 39.5879H85.1343V38.0688H88.272C89.0301 38.0688 89.6056 37.925 89.9985 37.6372C90.397 37.3494 90.5962 36.9344 90.5962 36.3921V36.3755C90.5962 35.8442 90.4163 35.4292 90.0566 35.1304C89.6969 34.8315 89.1934 34.6821 88.5459 34.6821H85.1343V33.022H89.0605C89.8242 33.022 90.4772 33.1437 91.0195 33.3872C91.5618 33.6252 91.9797 33.9683 92.2729 34.4165C92.5662 34.8592 92.7129 35.3877 92.7129 36.002V36.0186C92.7129 36.4391 92.616 36.832 92.4224 37.1973C92.2342 37.5625 91.9797 37.8669 91.6587 38.1104C91.3433 38.3538 90.9836 38.5088 90.5796 38.5752V38.7246C91.1164 38.7744 91.5868 38.9294 91.9907 39.1895C92.4002 39.444 92.7184 39.7788 92.9453 40.1938C93.1777 40.6089 93.2939 41.0737 93.2939 41.5884V41.605C93.2939 42.3022 93.1279 42.9054 92.7959 43.4146C92.4694 43.9237 91.999 44.3166 91.3848 44.5933C90.7705 44.8644 90.0373 45 89.1851 45H85.1343ZM84.0635 45V33.022H86.2051V45H84.0635ZM98.4238 45.1826C97.7487 45.1826 97.1815 45.0526 96.7222 44.7925C96.2629 44.5269 95.917 44.1423 95.6846 43.6387C95.4521 43.1296 95.3359 42.5153 95.3359 41.7959V35.9272H97.4028V41.3228C97.4028 42.0256 97.5412 42.554 97.8179 42.9082C98.0946 43.2624 98.5456 43.4395 99.1709 43.4395C99.5029 43.4395 99.7962 43.3896 100.051 43.29C100.311 43.1849 100.527 43.0355 100.698 42.8418C100.87 42.6481 101 42.4157 101.088 42.1445C101.177 41.8678 101.221 41.5579 101.221 41.2148V35.9272H103.288V45H101.221V43.6221H101.08C100.942 43.943 100.748 44.2225 100.499 44.4604C100.25 44.6929 99.9512 44.8727 99.6025 45C99.2539 45.1217 98.861 45.1826 98.4238 45.1826ZM105.895 45V32.416H107.961V45H105.895ZM113.564 45.1826C112.889 45.1826 112.322 45.0526 111.863 44.7925C111.403 44.5269 111.058 44.1423 110.825 43.6387C110.593 43.1296 110.477 42.5153 110.477 41.7959V35.9272H112.543V41.3228C112.543 42.0256 112.682 42.554 112.958 42.9082C113.235 43.2624 113.686 43.4395 114.312 43.4395C114.644 43.4395 114.937 43.3896 115.191 43.29C115.451 43.1849 115.667 43.0355 115.839 42.8418C116.01 42.6481 116.14 42.4157 116.229 42.1445C116.318 41.8678 116.362 41.5579 116.362 41.2148V35.9272H118.429V45H116.362V43.6221H116.221C116.082 43.943 115.889 44.2225 115.64 44.4604C115.391 44.6929 115.092 44.8727 114.743 45C114.395 45.1217 114.002 45.1826 113.564 45.1826ZM124.38 45.1826C123.611 45.1826 122.947 45.0747 122.388 44.8589C121.835 44.6375 121.398 44.3332 121.077 43.9458C120.756 43.5529 120.565 43.0991 120.504 42.5845V42.5679H122.554L122.562 42.5845C122.673 42.8999 122.881 43.1572 123.185 43.3564C123.489 43.5557 123.899 43.6553 124.414 43.6553C124.757 43.6553 125.058 43.6082 125.318 43.5142C125.578 43.4146 125.783 43.279 125.933 43.1074C126.082 42.9359 126.157 42.7367 126.157 42.5098V42.4932C126.157 42.2275 126.049 42.0062 125.833 41.8291C125.617 41.6465 125.26 41.4998 124.762 41.3892L123.293 41.0571C122.717 40.9299 122.242 40.7528 121.865 40.5259C121.489 40.299 121.207 40.0195 121.019 39.6875C120.836 39.3555 120.745 38.9681 120.745 38.5254V38.5171C120.745 37.9692 120.897 37.4878 121.201 37.0728C121.511 36.6577 121.94 36.334 122.488 36.1016C123.036 35.8691 123.667 35.7529 124.38 35.7529C125.116 35.7529 125.75 35.8636 126.281 36.085C126.812 36.3063 127.228 36.6107 127.526 36.998C127.825 37.3854 127.997 37.8254 128.041 38.3179V38.3345H126.099L126.09 38.3096C126.013 38.0218 125.827 37.7783 125.534 37.5791C125.246 37.3743 124.859 37.272 124.372 37.272C124.068 37.272 123.794 37.319 123.55 37.4131C123.312 37.5072 123.124 37.64 122.986 37.8115C122.853 37.9775 122.787 38.174 122.787 38.4009V38.4092C122.787 38.5863 122.831 38.7412 122.919 38.874C123.014 39.0068 123.16 39.123 123.359 39.2227C123.559 39.3223 123.821 39.4108 124.148 39.4883L125.617 39.812C126.508 40.0112 127.167 40.3073 127.593 40.7002C128.019 41.0931 128.232 41.6216 128.232 42.2856V42.3022C128.232 42.8778 128.066 43.3813 127.734 43.813C127.402 44.2446 126.945 44.5822 126.364 44.8257C125.783 45.0636 125.122 45.1826 124.38 45.1826ZM140.185 45.2988C139.316 45.2988 138.536 45.1549 137.844 44.8672C137.153 44.5739 136.56 44.1533 136.068 43.6055C135.581 43.0576 135.207 42.3991 134.947 41.6299C134.687 40.8551 134.557 39.9836 134.557 39.0151V38.9985C134.557 37.7202 134.787 36.6134 135.246 35.6782C135.705 34.7375 136.353 34.0098 137.188 33.4951C138.03 32.9805 139.017 32.7231 140.152 32.7231C141.076 32.7231 141.901 32.8892 142.625 33.2212C143.356 33.5477 143.954 34.007 144.418 34.5991C144.883 35.1857 145.179 35.8691 145.307 36.6494L145.323 36.7324H143.198L143.173 36.6494C142.98 35.9909 142.62 35.4818 142.094 35.1221C141.569 34.7568 140.921 34.5742 140.152 34.5742C139.455 34.5742 138.849 34.7541 138.334 35.1138C137.825 35.4735 137.432 35.9826 137.155 36.6411C136.879 37.2996 136.74 38.0799 136.74 38.9819V38.9985C136.74 39.6847 136.82 40.3018 136.981 40.8496C137.141 41.3975 137.371 41.8651 137.67 42.2524C137.974 42.6398 138.34 42.9359 138.766 43.1406C139.197 43.3454 139.681 43.4478 140.218 43.4478C140.827 43.4478 141.361 43.3288 141.82 43.0908C142.285 42.8529 142.648 42.5208 142.908 42.0947C143.173 41.6686 143.312 41.1733 143.323 40.6089V40.3599H140.451V38.7246H145.415V40.2188C145.415 40.9935 145.293 41.6935 145.049 42.3188C144.806 42.9442 144.454 43.4782 143.995 43.9209C143.541 44.3636 142.991 44.7039 142.343 44.9419C141.701 45.1799 140.982 45.2988 140.185 45.2988ZM147.697 45V35.9272H149.764V37.3218H149.905C150.06 36.8348 150.337 36.4557 150.735 36.1846C151.139 35.9134 151.64 35.7778 152.238 35.7778C152.393 35.7778 152.545 35.7889 152.694 35.811C152.849 35.8276 152.977 35.8498 153.076 35.8774V37.7285C152.91 37.6898 152.741 37.6621 152.57 37.6455C152.404 37.6234 152.229 37.6123 152.047 37.6123C151.588 37.6123 151.186 37.6981 150.843 37.8696C150.5 38.0412 150.235 38.2874 150.046 38.6084C149.858 38.9238 149.764 39.2974 149.764 39.729V45H147.697ZM157.127 45.1494C156.557 45.1494 156.045 45.0387 155.591 44.8174C155.143 44.596 154.789 44.2834 154.529 43.8794C154.274 43.4699 154.147 42.9884 154.147 42.4351V42.4185C154.147 41.8817 154.28 41.4196 154.545 41.0322C154.811 40.6393 155.201 40.3322 155.716 40.1108C156.23 39.8895 156.856 39.7594 157.592 39.7207L160.945 39.5132V40.8745L157.882 41.0737C157.301 41.1069 156.872 41.2287 156.596 41.439C156.319 41.6493 156.181 41.9425 156.181 42.3188V42.3354C156.181 42.7228 156.327 43.0244 156.621 43.2402C156.919 43.4561 157.299 43.564 157.758 43.564C158.173 43.564 158.544 43.481 158.87 43.3149C159.197 43.1489 159.454 42.9248 159.642 42.6426C159.83 42.3548 159.924 42.0311 159.924 41.6714V38.7993C159.924 38.3455 159.78 37.9997 159.493 37.7617C159.205 37.5182 158.779 37.3965 158.214 37.3965C157.744 37.3965 157.359 37.4795 157.061 37.6455C156.762 37.806 156.56 38.0356 156.455 38.3345L156.446 38.3677H154.496L154.504 38.293C154.57 37.7839 154.77 37.3384 155.102 36.9565C155.434 36.5747 155.874 36.2786 156.421 36.0684C156.969 35.8581 157.6 35.7529 158.314 35.7529C159.1 35.7529 159.764 35.8747 160.306 36.1182C160.848 36.3561 161.261 36.7048 161.543 37.1641C161.825 37.6178 161.966 38.1629 161.966 38.7993V45H159.924V43.7549H159.783C159.617 44.0426 159.401 44.2917 159.136 44.502C158.876 44.7122 158.577 44.8727 158.239 44.9834C157.902 45.0941 157.531 45.1494 157.127 45.1494ZM169.495 45.1494C169.069 45.1494 168.679 45.0885 168.325 44.9668C167.971 44.8395 167.658 44.6597 167.387 44.4272C167.121 44.1893 166.905 43.9071 166.739 43.5806H166.598V45H164.531V32.416H166.598V37.3716H166.739C166.9 37.0451 167.116 36.7629 167.387 36.5249C167.658 36.2869 167.973 36.1043 168.333 35.9771C168.693 35.8442 169.08 35.7778 169.495 35.7778C170.259 35.7778 170.917 35.9688 171.471 36.3506C172.03 36.7269 172.461 37.2664 172.766 37.9692C173.07 38.6665 173.222 39.4966 173.222 40.4595V40.4761C173.222 41.4279 173.067 42.2552 172.757 42.958C172.453 43.6608 172.021 44.2031 171.462 44.585C170.909 44.9613 170.253 45.1494 169.495 45.1494ZM168.848 43.4062C169.318 43.4062 169.722 43.29 170.06 43.0576C170.397 42.8197 170.657 42.4821 170.84 42.0449C171.022 41.6077 171.114 41.0848 171.114 40.4761V40.4595C171.114 39.8507 171.022 39.3278 170.84 38.8906C170.657 38.4479 170.397 38.1104 170.06 37.8779C169.722 37.64 169.318 37.521 168.848 37.521C168.383 37.521 167.979 37.64 167.636 37.8779C167.293 38.1159 167.027 38.4535 166.839 38.8906C166.656 39.3278 166.565 39.8507 166.565 40.4595V40.4761C166.565 41.0793 166.656 41.6022 166.839 42.0449C167.027 42.4821 167.29 42.8197 167.627 43.0576C167.971 43.29 168.377 43.4062 168.848 43.4062ZM184.196 45.2988C183.266 45.2988 182.458 45.1549 181.772 44.8672C181.091 44.5794 180.555 44.1782 180.162 43.6636C179.769 43.1489 179.547 42.5485 179.498 41.8623L179.489 41.7461H181.564L181.573 41.8291C181.606 42.1667 181.739 42.46 181.971 42.709C182.209 42.958 182.525 43.1545 182.917 43.2983C183.31 43.4367 183.759 43.5059 184.262 43.5059C184.744 43.5059 185.17 43.4312 185.541 43.2817C185.911 43.1323 186.202 42.9276 186.412 42.6675C186.622 42.4019 186.728 42.0975 186.728 41.7544V41.7461C186.728 41.3145 186.559 40.9631 186.221 40.6919C185.884 40.4152 185.327 40.1938 184.553 40.0278L183.266 39.7622C182.038 39.5021 181.144 39.0871 180.585 38.5171C180.032 37.9416 179.755 37.2083 179.755 36.3174V36.3091C179.755 35.5952 179.943 34.9699 180.319 34.4331C180.701 33.8963 181.224 33.4785 181.888 33.1797C182.558 32.8753 183.324 32.7231 184.188 32.7231C185.073 32.7231 185.839 32.8726 186.487 33.1714C187.134 33.4647 187.643 33.8659 188.014 34.375C188.385 34.8841 188.592 35.4596 188.637 36.1016L188.645 36.2095H186.603L186.586 36.1099C186.537 35.7944 186.407 35.5205 186.196 35.2881C185.992 35.0501 185.718 34.862 185.375 34.7236C185.031 34.5853 184.63 34.5161 184.171 34.5161C183.734 34.5161 183.344 34.5853 183 34.7236C182.657 34.8564 182.386 35.0446 182.187 35.2881C181.993 35.5316 181.896 35.8249 181.896 36.168V36.1763C181.896 36.5968 182.06 36.9455 182.386 37.2222C182.718 37.4989 183.258 37.7147 184.005 37.8696L185.292 38.1436C186.133 38.3206 186.816 38.5558 187.342 38.8491C187.868 39.1424 188.252 39.5076 188.496 39.9448C188.745 40.3765 188.869 40.8966 188.869 41.5054V41.5137C188.869 42.2884 188.678 42.958 188.296 43.5225C187.92 44.0869 187.381 44.5241 186.678 44.834C185.98 45.1439 185.153 45.2988 184.196 45.2988ZM194.63 45.0415C193.59 45.0415 192.84 44.8506 192.38 44.4688C191.921 44.0869 191.691 43.4616 191.691 42.5928V37.5293H190.28V35.9272H191.691V33.7026H193.792V35.9272H195.701V37.5293H193.792V42.103C193.792 42.5513 193.886 42.8805 194.074 43.0908C194.267 43.2956 194.577 43.3979 195.003 43.3979C195.153 43.3979 195.275 43.3952 195.369 43.3896C195.468 43.3786 195.579 43.3675 195.701 43.3564V44.9502C195.557 44.9779 195.391 45 195.203 45.0166C195.02 45.0332 194.829 45.0415 194.63 45.0415ZM200.241 45.1494C199.671 45.1494 199.159 45.0387 198.706 44.8174C198.257 44.596 197.903 44.2834 197.643 43.8794C197.389 43.4699 197.261 42.9884 197.261 42.4351V42.4185C197.261 41.8817 197.394 41.4196 197.66 41.0322C197.925 40.6393 198.315 40.3322 198.83 40.1108C199.345 39.8895 199.97 39.7594 200.706 39.7207L204.06 39.5132V40.8745L200.997 41.0737C200.416 41.1069 199.987 41.2287 199.71 41.439C199.433 41.6493 199.295 41.9425 199.295 42.3188V42.3354C199.295 42.7228 199.442 43.0244 199.735 43.2402C200.034 43.4561 200.413 43.564 200.872 43.564C201.287 43.564 201.658 43.481 201.984 43.3149C202.311 43.1489 202.568 42.9248 202.756 42.6426C202.944 42.3548 203.039 42.0311 203.039 41.6714V38.7993C203.039 38.3455 202.895 37.9997 202.607 37.7617C202.319 37.5182 201.893 37.3965 201.329 37.3965C200.858 37.3965 200.474 37.4795 200.175 37.6455C199.876 37.806 199.674 38.0356 199.569 38.3345L199.561 38.3677H197.61L197.618 38.293C197.685 37.7839 197.884 37.3384 198.216 36.9565C198.548 36.5747 198.988 36.2786 199.536 36.0684C200.083 35.8581 200.714 35.7529 201.428 35.7529C202.214 35.7529 202.878 35.8747 203.42 36.1182C203.963 36.3561 204.375 36.7048 204.657 37.1641C204.939 37.6178 205.081 38.1629 205.081 38.7993V45H203.039V43.7549H202.897C202.731 44.0426 202.516 44.2917 202.25 44.502C201.99 44.7122 201.691 44.8727 201.354 44.9834C201.016 45.0941 200.645 45.1494 200.241 45.1494ZM211.132 45.0415C210.091 45.0415 209.342 44.8506 208.882 44.4688C208.423 44.0869 208.193 43.4616 208.193 42.5928V37.5293H206.782V35.9272H208.193V33.7026H210.293V35.9272H212.203V37.5293H210.293V42.103C210.293 42.5513 210.388 42.8805 210.576 43.0908C210.769 43.2956 211.079 43.3979 211.505 43.3979C211.655 43.3979 211.777 43.3952 211.871 43.3896C211.97 43.3786 212.081 43.3675 212.203 43.3564V44.9502C212.059 44.9779 211.893 45 211.705 45.0166C211.522 45.0332 211.331 45.0415 211.132 45.0415ZM214.294 45V35.9272H216.353V45H214.294ZM215.332 34.4082C214.994 34.4082 214.704 34.2892 214.46 34.0513C214.217 33.8133 214.095 33.5283 214.095 33.1963C214.095 32.8532 214.217 32.5654 214.46 32.333C214.704 32.0951 214.994 31.9761 215.332 31.9761C215.67 31.9761 215.957 32.0951 216.195 32.333C216.439 32.5654 216.561 32.8532 216.561 33.1963C216.561 33.5283 216.439 33.8133 216.195 34.0513C215.957 34.2892 215.67 34.4082 215.332 34.4082ZM222.819 45.1826C221.917 45.1826 221.14 44.9945 220.487 44.6182C219.834 44.2363 219.33 43.694 218.976 42.9912C218.627 42.2884 218.453 41.4473 218.453 40.4678V40.4512C218.453 39.4827 218.63 38.6471 218.984 37.9443C219.339 37.236 219.839 36.6937 220.487 36.3174C221.14 35.9411 221.917 35.7529 222.819 35.7529C223.721 35.7529 224.496 35.9411 225.144 36.3174C225.797 36.6937 226.3 37.2332 226.654 37.936C227.008 38.6388 227.186 39.4772 227.186 40.4512V40.4678C227.186 41.4473 227.008 42.2884 226.654 42.9912C226.306 43.694 225.805 44.2363 225.152 44.6182C224.504 44.9945 223.727 45.1826 222.819 45.1826ZM222.819 43.5059C223.295 43.5059 223.699 43.3869 224.031 43.1489C224.369 42.9054 224.626 42.5596 224.803 42.1113C224.98 41.6576 225.069 41.1125 225.069 40.4761V40.4595C225.069 39.8175 224.98 39.2725 224.803 38.8242C224.626 38.3704 224.369 38.0246 224.031 37.7866C223.699 37.5431 223.295 37.4214 222.819 37.4214C222.343 37.4214 221.937 37.5431 221.599 37.7866C221.262 38.0246 221.004 38.3704 220.827 38.8242C220.65 39.2725 220.562 39.8175 220.562 40.4595V40.4761C220.562 41.1125 220.65 41.6576 220.827 42.1113C221.004 42.5651 221.259 42.911 221.591 43.1489C221.928 43.3869 222.338 43.5059 222.819 43.5059ZM229.261 45V35.9272H231.328V37.3218H231.469C231.685 36.8293 232.011 36.4447 232.448 36.168C232.885 35.8913 233.431 35.7529 234.083 35.7529C235.096 35.7529 235.871 36.0462 236.408 36.6328C236.944 37.2194 237.213 38.0522 237.213 39.1313V45H235.146V39.6128C235.146 38.9045 234.997 38.3732 234.698 38.019C234.404 37.6649 233.945 37.4878 233.32 37.4878C232.91 37.4878 232.556 37.5791 232.257 37.7617C231.958 37.9443 231.729 38.2017 231.568 38.5337C231.408 38.8657 231.328 39.2586 231.328 39.7124V45H229.261Z" fill="white"/>
<path d="M29.4775 100V88.022H31.6191V98.1987H37.106V100H29.4775ZM42.6758 100.183C41.7738 100.183 40.999 99.9917 40.3516 99.6099C39.7096 99.228 39.2144 98.6857 38.8657 97.9829C38.5171 97.2801 38.3428 96.4473 38.3428 95.4844V95.4761C38.3428 94.5243 38.5143 93.6942 38.8574 92.9858C39.2061 92.2775 39.6986 91.7297 40.335 91.3423C40.9714 90.9494 41.7184 90.7529 42.5762 90.7529C43.4395 90.7529 44.181 90.9438 44.8008 91.3257C45.4261 91.702 45.9076 92.2305 46.2451 92.9111C46.5827 93.5918 46.7515 94.3887 46.7515 95.3018V95.9824H39.3804V94.5962H45.7388L44.7593 95.8911V95.0693C44.7593 94.4661 44.668 93.9653 44.4854 93.5669C44.3027 93.1685 44.0482 92.8696 43.7217 92.6704C43.4007 92.4712 43.0272 92.3716 42.6011 92.3716C42.175 92.3716 41.7959 92.4767 41.4639 92.687C41.1374 92.8918 40.8773 93.1961 40.6836 93.6001C40.4954 93.9985 40.4014 94.4883 40.4014 95.0693V95.8994C40.4014 96.4583 40.4954 96.937 40.6836 97.3354C40.8717 97.7284 41.1374 98.0327 41.4805 98.2485C41.8291 98.4588 42.2414 98.564 42.7173 98.564C43.0881 98.564 43.4062 98.5114 43.6719 98.4062C43.943 98.2956 44.1616 98.1655 44.3276 98.0161C44.4937 97.8612 44.6099 97.7145 44.6763 97.5762L44.7012 97.5181H46.6602L46.6436 97.5928C46.5716 97.8861 46.4388 98.1849 46.2451 98.4893C46.057 98.7881 45.7996 99.0675 45.4731 99.3276C45.1522 99.5822 44.7593 99.7897 44.2944 99.9502C43.8296 100.105 43.29 100.183 42.6758 100.183ZM53.8652 100.149C53.4391 100.149 53.049 100.089 52.6948 99.9668C52.3407 99.8395 52.028 99.6597 51.7568 99.4272C51.4912 99.1893 51.2754 98.9071 51.1094 98.5806H50.9683V100H48.9014V87.416H50.9683V92.3716H51.1094C51.2699 92.0451 51.4857 91.7629 51.7568 91.5249C52.028 91.2869 52.3434 91.1043 52.7031 90.9771C53.0628 90.8442 53.4502 90.7778 53.8652 90.7778C54.6289 90.7778 55.2874 90.9688 55.8408 91.3506C56.3997 91.7269 56.8314 92.2664 57.1357 92.9692C57.4401 93.6665 57.5923 94.4966 57.5923 95.4595V95.4761C57.5923 96.4279 57.4373 97.2552 57.1274 97.958C56.8231 98.6608 56.3914 99.2031 55.8325 99.585C55.2791 99.9613 54.6234 100.149 53.8652 100.149ZM53.2178 98.4062C53.6882 98.4062 54.0921 98.29 54.4297 98.0576C54.7673 97.8197 55.0273 97.4821 55.21 97.0449C55.3926 96.6077 55.4839 96.0848 55.4839 95.4761V95.4595C55.4839 94.8507 55.3926 94.3278 55.21 93.8906C55.0273 93.4479 54.7673 93.1104 54.4297 92.8779C54.0921 92.64 53.6882 92.521 53.2178 92.521C52.7529 92.521 52.349 92.64 52.0059 92.8779C51.6628 93.1159 51.3971 93.4535 51.209 93.8906C51.0264 94.3278 50.9351 94.8507 50.9351 95.4595V95.4761C50.9351 96.0793 51.0264 96.6022 51.209 97.0449C51.3971 97.4821 51.66 97.8197 51.9976 98.0576C52.3407 98.29 52.7474 98.4062 53.2178 98.4062ZM62.1328 100.149C61.5628 100.149 61.0509 100.039 60.5972 99.8174C60.1489 99.596 59.7948 99.2834 59.5347 98.8794C59.2801 98.4699 59.1528 97.9884 59.1528 97.4351V97.4185C59.1528 96.8817 59.2856 96.4196 59.5513 96.0322C59.8169 95.6393 60.207 95.3322 60.7217 95.1108C61.2363 94.8895 61.8617 94.7594 62.5977 94.7207L65.9512 94.5132V95.8745L62.8882 96.0737C62.3071 96.1069 61.8783 96.2287 61.6016 96.439C61.3249 96.6493 61.1865 96.9425 61.1865 97.3188V97.3354C61.1865 97.7228 61.3332 98.0244 61.6265 98.2402C61.9253 98.4561 62.3044 98.564 62.7637 98.564C63.1787 98.564 63.5495 98.481 63.876 98.3149C64.2025 98.1489 64.4598 97.9248 64.6479 97.6426C64.8361 97.3548 64.9302 97.0311 64.9302 96.6714V93.7993C64.9302 93.3455 64.7863 92.9997 64.4985 92.7617C64.2108 92.5182 63.7847 92.3965 63.2202 92.3965C62.7498 92.3965 62.3652 92.4795 62.0664 92.6455C61.7676 92.806 61.5656 93.0356 61.4604 93.3345L61.4521 93.3677H59.5015L59.5098 93.293C59.5762 92.7839 59.7754 92.3384 60.1074 91.9565C60.4395 91.5747 60.8794 91.2786 61.4272 91.0684C61.9751 90.8581 62.606 90.7529 63.3198 90.7529C64.1056 90.7529 64.7697 90.8747 65.312 91.1182C65.8543 91.3561 66.2666 91.7048 66.5488 92.1641C66.8311 92.6178 66.9722 93.1629 66.9722 93.7993V100H64.9302V98.7549H64.7891C64.623 99.0426 64.4072 99.2917 64.1416 99.502C63.8815 99.7122 63.5827 99.8727 63.2451 99.9834C62.9076 100.094 62.5368 100.149 62.1328 100.149ZM69.5371 100V87.416H71.604V100H69.5371ZM75.2397 100L72.1851 95.8828L73.7207 94.6211L77.7217 100H75.2397ZM71.4297 96.9951L71.355 94.6543H71.7451L75.0903 90.9272H77.481L73.5381 95.0693L72.5918 95.8081L71.4297 96.9951ZM85.1343 100V98.3398H88.6953C89.4867 98.3398 90.0871 98.1794 90.4966 97.8584C90.9061 97.5319 91.1108 97.0643 91.1108 96.4556V96.439C91.1108 96.035 91.0168 95.6947 90.8286 95.418C90.6405 95.1413 90.3582 94.9338 89.9819 94.7954C89.6112 94.6571 89.1519 94.5879 88.604 94.5879H85.1343V93.0688H88.272C89.0301 93.0688 89.6056 92.925 89.9985 92.6372C90.397 92.3494 90.5962 91.9344 90.5962 91.3921V91.3755C90.5962 90.8442 90.4163 90.4292 90.0566 90.1304C89.6969 89.8315 89.1934 89.6821 88.5459 89.6821H85.1343V88.022H89.0605C89.8242 88.022 90.4772 88.1437 91.0195 88.3872C91.5618 88.6252 91.9797 88.9683 92.2729 89.4165C92.5662 89.8592 92.7129 90.3877 92.7129 91.002V91.0186C92.7129 91.4391 92.616 91.832 92.4224 92.1973C92.2342 92.5625 91.9797 92.8669 91.6587 93.1104C91.3433 93.3538 90.9836 93.5088 90.5796 93.5752V93.7246C91.1164 93.7744 91.5868 93.9294 91.9907 94.1895C92.4002 94.444 92.7184 94.7788 92.9453 95.1938C93.1777 95.6089 93.2939 96.0737 93.2939 96.5884V96.605C93.2939 97.3022 93.1279 97.9054 92.7959 98.4146C92.4694 98.9237 91.999 99.3166 91.3848 99.5933C90.7705 99.8644 90.0373 100 89.1851 100H85.1343ZM84.0635 100V88.022H86.2051V100H84.0635ZM98.4238 100.183C97.7487 100.183 97.1815 100.053 96.7222 99.7925C96.2629 99.5269 95.917 99.1423 95.6846 98.6387C95.4521 98.1296 95.3359 97.5153 95.3359 96.7959V90.9272H97.4028V96.3228C97.4028 97.0256 97.5412 97.554 97.8179 97.9082C98.0946 98.2624 98.5456 98.4395 99.1709 98.4395C99.5029 98.4395 99.7962 98.3896 100.051 98.29C100.311 98.1849 100.527 98.0355 100.698 97.8418C100.87 97.6481 101 97.4157 101.088 97.1445C101.177 96.8678 101.221 96.5579 101.221 96.2148V90.9272H103.288V100H101.221V98.6221H101.08C100.942 98.943 100.748 99.2225 100.499 99.4604C100.25 99.6929 99.9512 99.8727 99.6025 100C99.2539 100.122 98.861 100.183 98.4238 100.183ZM105.895 100V87.416H107.961V100H105.895ZM113.564 100.183C112.889 100.183 112.322 100.053 111.863 99.7925C111.403 99.5269 111.058 99.1423 110.825 98.6387C110.593 98.1296 110.477 97.5153 110.477 96.7959V90.9272H112.543V96.3228C112.543 97.0256 112.682 97.554 112.958 97.9082C113.235 98.2624 113.686 98.4395 114.312 98.4395C114.644 98.4395 114.937 98.3896 115.191 98.29C115.451 98.1849 115.667 98.0355 115.839 97.8418C116.01 97.6481 116.14 97.4157 116.229 97.1445C116.318 96.8678 116.362 96.5579 116.362 96.2148V90.9272H118.429V100H116.362V98.6221H116.221C116.082 98.943 115.889 99.2225 115.64 99.4604C115.391 99.6929 115.092 99.8727 114.743 100C114.395 100.122 114.002 100.183 113.564 100.183ZM124.38 100.183C123.611 100.183 122.947 100.075 122.388 99.8589C121.835 99.6375 121.398 99.3332 121.077 98.9458C120.756 98.5529 120.565 98.0991 120.504 97.5845V97.5679H122.554L122.562 97.5845C122.673 97.8999 122.881 98.1572 123.185 98.3564C123.489 98.5557 123.899 98.6553 124.414 98.6553C124.757 98.6553 125.058 98.6082 125.318 98.5142C125.578 98.4146 125.783 98.279 125.933 98.1074C126.082 97.9359 126.157 97.7367 126.157 97.5098V97.4932C126.157 97.2275 126.049 97.0062 125.833 96.8291C125.617 96.6465 125.26 96.4998 124.762 96.3892L123.293 96.0571C122.717 95.9299 122.242 95.7528 121.865 95.5259C121.489 95.299 121.207 95.0195 121.019 94.6875C120.836 94.3555 120.745 93.9681 120.745 93.5254V93.5171C120.745 92.9692 120.897 92.4878 121.201 92.0728C121.511 91.6577 121.94 91.334 122.488 91.1016C123.036 90.8691 123.667 90.7529 124.38 90.7529C125.116 90.7529 125.75 90.8636 126.281 91.085C126.812 91.3063 127.228 91.6107 127.526 91.998C127.825 92.3854 127.997 92.8254 128.041 93.3179V93.3345H126.099L126.09 93.3096C126.013 93.0218 125.827 92.7783 125.534 92.5791C125.246 92.3743 124.859 92.272 124.372 92.272C124.068 92.272 123.794 92.319 123.55 92.4131C123.312 92.5072 123.124 92.64 122.986 92.8115C122.853 92.9775 122.787 93.174 122.787 93.4009V93.4092C122.787 93.5863 122.831 93.7412 122.919 93.874C123.014 94.0068 123.16 94.123 123.359 94.2227C123.559 94.3223 123.821 94.4108 124.148 94.4883L125.617 94.812C126.508 95.0112 127.167 95.3073 127.593 95.7002C128.019 96.0931 128.232 96.6216 128.232 97.2856V97.3022C128.232 97.8778 128.066 98.3813 127.734 98.813C127.402 99.2446 126.945 99.5822 126.364 99.8257C125.783 100.064 125.122 100.183 124.38 100.183ZM140.185 100.299C139.316 100.299 138.536 100.155 137.844 99.8672C137.153 99.5739 136.56 99.1533 136.068 98.6055C135.581 98.0576 135.207 97.3991 134.947 96.6299C134.687 95.8551 134.557 94.9836 134.557 94.0151V93.9985C134.557 92.7202 134.787 91.6134 135.246 90.6782C135.705 89.7375 136.353 89.0098 137.188 88.4951C138.03 87.9805 139.017 87.7231 140.152 87.7231C141.076 87.7231 141.901 87.8892 142.625 88.2212C143.356 88.5477 143.954 89.007 144.418 89.5991C144.883 90.1857 145.179 90.8691 145.307 91.6494L145.323 91.7324H143.198L143.173 91.6494C142.98 90.9909 142.62 90.4818 142.094 90.1221C141.569 89.7568 140.921 89.5742 140.152 89.5742C139.455 89.5742 138.849 89.7541 138.334 90.1138C137.825 90.4735 137.432 90.9826 137.155 91.6411C136.879 92.2996 136.74 93.0799 136.74 93.9819V93.9985C136.74 94.6847 136.82 95.3018 136.981 95.8496C137.141 96.3975 137.371 96.8651 137.67 97.2524C137.974 97.6398 138.34 97.9359 138.766 98.1406C139.197 98.3454 139.681 98.4478 140.218 98.4478C140.827 98.4478 141.361 98.3288 141.82 98.0908C142.285 97.8529 142.648 97.5208 142.908 97.0947C143.173 96.6686 143.312 96.1733 143.323 95.6089V95.3599H140.451V93.7246H145.415V95.2188C145.415 95.9935 145.293 96.6935 145.049 97.3188C144.806 97.9442 144.454 98.4782 143.995 98.9209C143.541 99.3636 142.991 99.7039 142.343 99.9419C141.701 100.18 140.982 100.299 140.185 100.299ZM147.697 100V90.9272H149.764V92.3218H149.905C150.06 91.8348 150.337 91.4557 150.735 91.1846C151.139 90.9134 151.64 90.7778 152.238 90.7778C152.393 90.7778 152.545 90.7889 152.694 90.811C152.849 90.8276 152.977 90.8498 153.076 90.8774V92.7285C152.91 92.6898 152.741 92.6621 152.57 92.6455C152.404 92.6234 152.229 92.6123 152.047 92.6123C151.588 92.6123 151.186 92.6981 150.843 92.8696C150.5 93.0412 150.235 93.2874 150.046 93.6084C149.858 93.9238 149.764 94.2974 149.764 94.729V100H147.697ZM157.127 100.149C156.557 100.149 156.045 100.039 155.591 99.8174C155.143 99.596 154.789 99.2834 154.529 98.8794C154.274 98.4699 154.147 97.9884 154.147 97.4351V97.4185C154.147 96.8817 154.28 96.4196 154.545 96.0322C154.811 95.6393 155.201 95.3322 155.716 95.1108C156.23 94.8895 156.856 94.7594 157.592 94.7207L160.945 94.5132V95.8745L157.882 96.0737C157.301 96.1069 156.872 96.2287 156.596 96.439C156.319 96.6493 156.181 96.9425 156.181 97.3188V97.3354C156.181 97.7228 156.327 98.0244 156.621 98.2402C156.919 98.4561 157.299 98.564 157.758 98.564C158.173 98.564 158.544 98.481 158.87 98.3149C159.197 98.1489 159.454 97.9248 159.642 97.6426C159.83 97.3548 159.924 97.0311 159.924 96.6714V93.7993C159.924 93.3455 159.78 92.9997 159.493 92.7617C159.205 92.5182 158.779 92.3965 158.214 92.3965C157.744 92.3965 157.359 92.4795 157.061 92.6455C156.762 92.806 156.56 93.0356 156.455 93.3345L156.446 93.3677H154.496L154.504 93.293C154.57 92.7839 154.77 92.3384 155.102 91.9565C155.434 91.5747 155.874 91.2786 156.421 91.0684C156.969 90.8581 157.6 90.7529 158.314 90.7529C159.1 90.7529 159.764 90.8747 160.306 91.1182C160.848 91.3561 161.261 91.7048 161.543 92.1641C161.825 92.6178 161.966 93.1629 161.966 93.7993V100H159.924V98.7549H159.783C159.617 99.0426 159.401 99.2917 159.136 99.502C158.876 99.7122 158.577 99.8727 158.239 99.9834C157.902 100.094 157.531 100.149 157.127 100.149ZM169.495 100.149C169.069 100.149 168.679 100.089 168.325 99.9668C167.971 99.8395 167.658 99.6597 167.387 99.4272C167.121 99.1893 166.905 98.9071 166.739 98.5806H166.598V100H164.531V87.416H166.598V92.3716H166.739C166.9 92.0451 167.116 91.7629 167.387 91.5249C167.658 91.2869 167.973 91.1043 168.333 90.9771C168.693 90.8442 169.08 90.7778 169.495 90.7778C170.259 90.7778 170.917 90.9688 171.471 91.3506C172.03 91.7269 172.461 92.2664 172.766 92.9692C173.07 93.6665 173.222 94.4966 173.222 95.4595V95.4761C173.222 96.4279 173.067 97.2552 172.757 97.958C172.453 98.6608 172.021 99.2031 171.462 99.585C170.909 99.9613 170.253 100.149 169.495 100.149ZM168.848 98.4062C169.318 98.4062 169.722 98.29 170.06 98.0576C170.397 97.8197 170.657 97.4821 170.84 97.0449C171.022 96.6077 171.114 96.0848 171.114 95.4761V95.4595C171.114 94.8507 171.022 94.3278 170.84 93.8906C170.657 93.4479 170.397 93.1104 170.06 92.8779C169.722 92.64 169.318 92.521 168.848 92.521C168.383 92.521 167.979 92.64 167.636 92.8779C167.293 93.1159 167.027 93.4535 166.839 93.8906C166.656 94.3278 166.565 94.8507 166.565 95.4595V95.4761C166.565 96.0793 166.656 96.6022 166.839 97.0449C167.027 97.4821 167.29 97.8197 167.627 98.0576C167.971 98.29 168.377 98.4062 168.848 98.4062ZM184.196 100.299C183.266 100.299 182.458 100.155 181.772 99.8672C181.091 99.5794 180.555 99.1782 180.162 98.6636C179.769 98.1489 179.547 97.5485 179.498 96.8623L179.489 96.7461H181.564L181.573 96.8291C181.606 97.1667 181.739 97.46 181.971 97.709C182.209 97.958 182.525 98.1545 182.917 98.2983C183.31 98.4367 183.759 98.5059 184.262 98.5059C184.744 98.5059 185.17 98.4312 185.541 98.2817C185.911 98.1323 186.202 97.9276 186.412 97.6675C186.622 97.4019 186.728 97.0975 186.728 96.7544V96.7461C186.728 96.3145 186.559 95.9631 186.221 95.6919C185.884 95.4152 185.327 95.1938 184.553 95.0278L183.266 94.7622C182.038 94.5021 181.144 94.0871 180.585 93.5171C180.032 92.9416 179.755 92.2083 179.755 91.3174V91.3091C179.755 90.5952 179.943 89.9699 180.319 89.4331C180.701 88.8963 181.224 88.4785 181.888 88.1797C182.558 87.8753 183.324 87.7231 184.188 87.7231C185.073 87.7231 185.839 87.8726 186.487 88.1714C187.134 88.4647 187.643 88.8659 188.014 89.375C188.385 89.8841 188.592 90.4596 188.637 91.1016L188.645 91.2095H186.603L186.586 91.1099C186.537 90.7944 186.407 90.5205 186.196 90.2881C185.992 90.0501 185.718 89.862 185.375 89.7236C185.031 89.5853 184.63 89.5161 184.171 89.5161C183.734 89.5161 183.344 89.5853 183 89.7236C182.657 89.8564 182.386 90.0446 182.187 90.2881C181.993 90.5316 181.896 90.8249 181.896 91.168V91.1763C181.896 91.5968 182.06 91.9455 182.386 92.2222C182.718 92.4989 183.258 92.7147 184.005 92.8696L185.292 93.1436C186.133 93.3206 186.816 93.5558 187.342 93.8491C187.868 94.1424 188.252 94.5076 188.496 94.9448C188.745 95.3765 188.869 95.8966 188.869 96.5054V96.5137C188.869 97.2884 188.678 97.958 188.296 98.5225C187.92 99.0869 187.381 99.5241 186.678 99.834C185.98 100.144 185.153 100.299 184.196 100.299ZM194.63 100.042C193.59 100.042 192.84 99.8506 192.38 99.4688C191.921 99.0869 191.691 98.4616 191.691 97.5928V92.5293H190.28V90.9272H191.691V88.7026H193.792V90.9272H195.701V92.5293H193.792V97.103C193.792 97.5513 193.886 97.8805 194.074 98.0908C194.267 98.2956 194.577 98.3979 195.003 98.3979C195.153 98.3979 195.275 98.3952 195.369 98.3896C195.468 98.3786 195.579 98.3675 195.701 98.3564V99.9502C195.557 99.9779 195.391 100 195.203 100.017C195.02 100.033 194.829 100.042 194.63 100.042ZM200.241 100.149C199.671 100.149 199.159 100.039 198.706 99.8174C198.257 99.596 197.903 99.2834 197.643 98.8794C197.389 98.4699 197.261 97.9884 197.261 97.4351V97.4185C197.261 96.8817 197.394 96.4196 197.66 96.0322C197.925 95.6393 198.315 95.3322 198.83 95.1108C199.345 94.8895 199.97 94.7594 200.706 94.7207L204.06 94.5132V95.8745L200.997 96.0737C200.416 96.1069 199.987 96.2287 199.71 96.439C199.433 96.6493 199.295 96.9425 199.295 97.3188V97.3354C199.295 97.7228 199.442 98.0244 199.735 98.2402C200.034 98.4561 200.413 98.564 200.872 98.564C201.287 98.564 201.658 98.481 201.984 98.3149C202.311 98.1489 202.568 97.9248 202.756 97.6426C202.944 97.3548 203.039 97.0311 203.039 96.6714V93.7993C203.039 93.3455 202.895 92.9997 202.607 92.7617C202.319 92.5182 201.893 92.3965 201.329 92.3965C200.858 92.3965 200.474 92.4795 200.175 92.6455C199.876 92.806 199.674 93.0356 199.569 93.3345L199.561 93.3677H197.61L197.618 93.293C197.685 92.7839 197.884 92.3384 198.216 91.9565C198.548 91.5747 198.988 91.2786 199.536 91.0684C200.083 90.8581 200.714 90.7529 201.428 90.7529C202.214 90.7529 202.878 90.8747 203.42 91.1182C203.963 91.3561 204.375 91.7048 204.657 92.1641C204.939 92.6178 205.081 93.1629 205.081 93.7993V100H203.039V98.7549H202.897C202.731 99.0426 202.516 99.2917 202.25 99.502C201.99 99.7122 201.691 99.8727 201.354 99.9834C201.016 100.094 200.645 100.149 200.241 100.149ZM211.132 100.042C210.091 100.042 209.342 99.8506 208.882 99.4688C208.423 99.0869 208.193 98.4616 208.193 97.5928V92.5293H206.782V90.9272H208.193V88.7026H210.293V90.9272H212.203V92.5293H210.293V97.103C210.293 97.5513 210.388 97.8805 210.576 98.0908C210.769 98.2956 211.079 98.3979 211.505 98.3979C211.655 98.3979 211.777 98.3952 211.871 98.3896C211.97 98.3786 212.081 98.3675 212.203 98.3564V99.9502C212.059 99.9779 211.893 100 211.705 100.017C211.522 100.033 211.331 100.042 211.132 100.042ZM214.294 100V90.9272H216.353V100H214.294ZM215.332 89.4082C214.994 89.4082 214.704 89.2892 214.46 89.0513C214.217 88.8133 214.095 88.5283 214.095 88.1963C214.095 87.8532 214.217 87.5654 214.46 87.333C214.704 87.0951 214.994 86.9761 215.332 86.9761C215.67 86.9761 215.957 87.0951 216.195 87.333C216.439 87.5654 216.561 87.8532 216.561 88.1963C216.561 88.5283 216.439 88.8133 216.195 89.0513C215.957 89.2892 215.67 89.4082 215.332 89.4082ZM222.819 100.183C221.917 100.183 221.14 99.9945 220.487 99.6182C219.834 99.2363 219.33 98.694 218.976 97.9912C218.627 97.2884 218.453 96.4473 218.453 95.4678V95.4512C218.453 94.4827 218.63 93.6471 218.984 92.9443C219.339 92.236 219.839 91.6937 220.487 91.3174C221.14 90.9411 221.917 90.7529 222.819 90.7529C223.721 90.7529 224.496 90.9411 225.144 91.3174C225.797 91.6937 226.3 92.2332 226.654 92.936C227.008 93.6388 227.186 94.4772 227.186 95.4512V95.4678C227.186 96.4473 227.008 97.2884 226.654 97.9912C226.306 98.694 225.805 99.2363 225.152 99.6182C224.504 99.9945 223.727 100.183 222.819 100.183ZM222.819 98.5059C223.295 98.5059 223.699 98.3869 224.031 98.1489C224.369 97.9054 224.626 97.5596 224.803 97.1113C224.98 96.6576 225.069 96.1125 225.069 95.4761V95.4595C225.069 94.8175 224.98 94.2725 224.803 93.8242C224.626 93.3704 224.369 93.0246 224.031 92.7866C223.699 92.5431 223.295 92.4214 222.819 92.4214C222.343 92.4214 221.937 92.5431 221.599 92.7866C221.262 93.0246 221.004 93.3704 220.827 93.8242C220.65 94.2725 220.562 94.8175 220.562 95.4595V95.4761C220.562 96.1125 220.65 96.6576 220.827 97.1113C221.004 97.5651 221.259 97.911 221.591 98.1489C221.928 98.3869 222.338 98.5059 222.819 98.5059ZM229.261 100V90.9272H231.328V92.3218H231.469C231.685 91.8293 232.011 91.4447 232.448 91.168C232.885 90.8913 233.431 90.7529 234.083 90.7529C235.096 90.7529 235.871 91.0462 236.408 91.6328C236.944 92.2194 237.213 93.0522 237.213 94.1313V100H235.146V94.6128C235.146 93.9045 234.997 93.3732 234.698 93.019C234.404 92.6649 233.945 92.4878 233.32 92.4878C232.91 92.4878 232.556 92.5791 232.257 92.7617C231.958 92.9443 231.729 93.2017 231.568 93.5337C231.408 93.8657 231.328 94.2586 231.328 94.7124V100H229.261Z" fill="#007AFF"/>
<rect x="21" y="76" width="324" height="36" rx="3" stroke="#007AFF" stroke-width="2"/>
<rect x="0.5" y="0.5" width="365" height="129" rx="4.5" stroke="#9747FF" stroke-dasharray="10 5"/>
</svg>
