<svg width="320" height="132" viewBox="0 0 320 132" fill="none" xmlns="http://www.w3.org/2000/svg">
<rect x="0.5" y="0.5" width="319" height="131" rx="4.5" fill="black"/>
<g clip-path="url(#clip0_87_235)">
<path d="M36 46.9922C40.3765 46.9922 44 43.3626 44 38.9961C44 34.6218 40.3686 31 35.9922 31C31.6235 31 28 34.6218 28 38.9961C28 43.3626 31.6314 46.9922 36 46.9922ZM36 45.6595C32.298 45.6595 29.3412 42.6963 29.3412 38.9961C29.3412 35.296 32.2902 32.3327 35.9922 32.3327C39.6941 32.3327 42.6667 35.296 42.6667 38.9961C42.6667 42.6963 39.702 45.6595 36 45.6595Z" fill="#007AFF"/>
</g>
<path d="M53.5273 45V33.022H55.0215V43.6553H60.7988V45H53.5273ZM66.2441 45.1577C65.3919 45.1577 64.6587 44.9696 64.0444 44.5933C63.4357 44.217 62.9653 43.6857 62.6333 42.9995C62.3068 42.3078 62.1436 41.4943 62.1436 40.5591V40.5508C62.1436 39.6266 62.3068 38.8159 62.6333 38.1187C62.9653 37.4214 63.4329 36.8763 64.0361 36.4834C64.6393 36.0905 65.3449 35.894 66.1528 35.894C66.9663 35.894 67.6636 36.0822 68.2446 36.4585C68.8312 36.8348 69.2795 37.3605 69.5894 38.0356C69.9048 38.7052 70.0625 39.4855 70.0625 40.3765V40.9409H62.8906V39.7871H69.3237L68.6099 40.8413V40.2686C68.6099 39.5658 68.5047 38.9875 68.2944 38.5337C68.0841 38.0799 67.7936 37.7424 67.4229 37.521C67.0521 37.2941 66.626 37.1807 66.1445 37.1807C65.6631 37.1807 65.2314 37.2996 64.8496 37.5376C64.4733 37.77 64.1745 38.1159 63.9531 38.5752C63.7318 39.0345 63.6211 39.599 63.6211 40.2686V40.8413C63.6211 41.4777 63.729 42.0228 63.9448 42.4766C64.1606 42.9248 64.4678 43.2707 64.8662 43.5142C65.2646 43.7521 65.735 43.8711 66.2773 43.8711C66.6813 43.8711 67.0327 43.8158 67.3315 43.7051C67.6304 43.5944 67.8766 43.4533 68.0703 43.2817C68.264 43.1102 68.3996 42.9359 68.4771 42.7588L68.5103 42.6841H69.9546L69.938 42.7505C69.8605 43.0549 69.7222 43.3509 69.5229 43.6387C69.3293 43.9209 69.0775 44.1782 68.7676 44.4106C68.4577 44.6375 68.0897 44.8201 67.6636 44.9585C67.243 45.0913 66.7699 45.1577 66.2441 45.1577ZM76.7529 45.1577C76.3379 45.1577 75.9533 45.0941 75.5991 44.9668C75.245 44.8395 74.9295 44.6597 74.6528 44.4272C74.3761 44.1893 74.1465 43.9043 73.9639 43.5723H73.8311V45H72.3867V32.499H73.8311V37.4629H73.9639C74.1299 37.1419 74.3512 36.8652 74.6279 36.6328C74.9102 36.4004 75.2311 36.2205 75.5908 36.0933C75.9561 35.9604 76.3434 35.894 76.7529 35.894C77.5111 35.894 78.1696 36.085 78.7285 36.4668C79.293 36.8486 79.7301 37.3854 80.04 38.0771C80.3499 38.7689 80.5049 39.5824 80.5049 40.5176V40.5342C80.5049 41.4639 80.3499 42.2773 80.04 42.9746C79.7301 43.6663 79.293 44.2031 78.7285 44.585C78.1696 44.9668 77.5111 45.1577 76.7529 45.1577ZM76.4209 43.8794C76.9688 43.8794 77.4364 43.7466 77.8237 43.481C78.2111 43.2098 78.5072 42.8252 78.7119 42.3271C78.9222 41.8236 79.0273 41.2259 79.0273 40.5342V40.5176C79.0273 39.8203 78.9222 39.2227 78.7119 38.7246C78.5072 38.2266 78.2111 37.8447 77.8237 37.5791C77.4364 37.3079 76.9688 37.1724 76.4209 37.1724C75.8786 37.1724 75.411 37.3079 75.0181 37.5791C74.6252 37.8503 74.3236 38.2349 74.1133 38.7329C73.903 39.231 73.7979 39.8258 73.7979 40.5176V40.5342C73.7979 41.2204 73.903 41.8153 74.1133 42.3188C74.3236 42.8169 74.6252 43.2015 75.0181 43.4727C75.411 43.7438 75.8786 43.8794 76.4209 43.8794ZM85.2031 45.1577C84.6387 45.1577 84.1296 45.0498 83.6758 44.834C83.2275 44.6182 82.8706 44.311 82.605 43.9126C82.3449 43.5142 82.2148 43.0438 82.2148 42.5015V42.4849C82.2148 41.9536 82.3421 41.4998 82.5967 41.1235C82.8512 40.7417 83.222 40.4429 83.709 40.2271C84.196 40.0112 84.7853 39.884 85.4771 39.8452L88.7642 39.646V40.7998L85.6514 40.999C84.9707 41.0378 84.4727 41.1789 84.1572 41.4224C83.8473 41.6659 83.6924 42.009 83.6924 42.4517V42.4683C83.6924 42.922 83.8639 43.2762 84.207 43.5308C84.5501 43.7798 84.9818 43.9043 85.502 43.9043C85.9945 43.9043 86.4316 43.8075 86.8135 43.6138C87.1953 43.4146 87.4941 43.1462 87.71 42.8086C87.9313 42.471 88.042 42.0892 88.042 41.6631V38.874C88.042 38.3206 87.8732 37.9001 87.5356 37.6123C87.2036 37.319 86.7028 37.1724 86.0332 37.1724C85.4964 37.1724 85.0565 37.2692 84.7134 37.4629C84.3703 37.651 84.1406 37.9194 84.0244 38.2681L84.0161 38.293H82.5718L82.5801 38.2432C82.6576 37.7728 82.8512 37.3633 83.1611 37.0146C83.4766 36.6605 83.8833 36.3866 84.3813 36.1929C84.8794 35.9937 85.4466 35.894 86.083 35.894C86.8135 35.894 87.4305 36.013 87.9341 36.251C88.4432 36.4889 88.8278 36.832 89.0879 37.2803C89.3535 37.723 89.4863 38.2542 89.4863 38.874V45H88.042V43.6802H87.9092C87.721 43.9956 87.4914 44.264 87.2202 44.4854C86.9546 44.7067 86.653 44.8755 86.3154 44.9917C85.9779 45.1024 85.6071 45.1577 85.2031 45.1577ZM92.209 45V32.499H93.6533V45H92.209ZM97.8452 45L94.3506 40.6172L95.4131 39.6958L99.6631 45H97.8452ZM93.4707 41.7793L93.4043 39.9614H93.7861L97.6543 36.0518H99.4058L95.1558 40.1523L94.8071 40.4927L93.4707 41.7793ZM107.067 45V43.6802H110.77C111.672 43.6802 112.355 43.5003 112.82 43.1406C113.285 42.7809 113.517 42.258 113.517 41.5718V41.5552C113.517 41.0959 113.409 40.7113 113.193 40.4014C112.978 40.0915 112.654 39.859 112.222 39.7041C111.796 39.5492 111.265 39.4717 110.628 39.4717H107.067V38.1851H110.205C111.113 38.1851 111.793 38.0246 112.247 37.7036C112.706 37.3826 112.936 36.9067 112.936 36.2759V36.2593C112.936 35.6506 112.729 35.1802 112.313 34.8481C111.904 34.5106 111.328 34.3418 110.587 34.3418H107.067V33.022H110.902C111.638 33.022 112.269 33.1437 112.795 33.3872C113.326 33.6307 113.733 33.9766 114.015 34.4248C114.303 34.8675 114.447 35.3932 114.447 36.002V36.0186C114.447 36.4336 114.353 36.8237 114.165 37.189C113.982 37.5542 113.736 37.8613 113.426 38.1104C113.116 38.3594 112.767 38.5199 112.38 38.5918V38.7246C112.928 38.791 113.401 38.9543 113.799 39.2144C114.198 39.4744 114.505 39.812 114.721 40.2271C114.942 40.6366 115.053 41.1042 115.053 41.6299V41.6465C115.053 42.3438 114.889 42.9442 114.563 43.4478C114.242 43.9458 113.78 44.3304 113.177 44.6016C112.574 44.8672 111.846 45 110.994 45H107.067ZM106.32 45V33.022H107.814V45H106.32ZM120.307 45.1577C119.632 45.1577 119.065 45.0304 118.605 44.7759C118.146 44.5158 117.8 44.1395 117.568 43.647C117.341 43.1489 117.228 42.5485 117.228 41.8457V36.0518H118.672V41.4971C118.672 42.2995 118.827 42.8971 119.137 43.29C119.452 43.6829 119.967 43.8794 120.681 43.8794C121.074 43.8794 121.419 43.8213 121.718 43.7051C122.023 43.5889 122.277 43.4229 122.482 43.207C122.687 42.9857 122.839 42.7201 122.938 42.4102C123.044 42.0947 123.096 41.7406 123.096 41.3477V36.0518H124.541V45H123.096V43.6636H122.963C122.819 43.979 122.623 44.2502 122.374 44.4771C122.125 44.6984 121.826 44.8672 121.478 44.9834C121.134 45.0996 120.744 45.1577 120.307 45.1577ZM127.321 45V32.499H128.766V45H127.321ZM134.535 45.1577C133.86 45.1577 133.292 45.0304 132.833 44.7759C132.374 44.5158 132.028 44.1395 131.795 43.647C131.569 43.1489 131.455 42.5485 131.455 41.8457V36.0518H132.899V41.4971C132.899 42.2995 133.054 42.8971 133.364 43.29C133.68 43.6829 134.194 43.8794 134.908 43.8794C135.301 43.8794 135.647 43.8213 135.946 43.7051C136.25 43.5889 136.505 43.4229 136.709 43.207C136.914 42.9857 137.066 42.7201 137.166 42.4102C137.271 42.0947 137.324 41.7406 137.324 41.3477V36.0518H138.768V45H137.324V43.6636H137.191C137.047 43.979 136.851 44.2502 136.602 44.4771C136.353 44.6984 136.054 44.8672 135.705 44.9834C135.362 45.0996 134.972 45.1577 134.535 45.1577ZM144.537 45.1577C143.873 45.1577 143.286 45.0581 142.777 44.8589C142.268 44.6541 141.859 44.3691 141.549 44.0039C141.244 43.6387 141.065 43.2098 141.009 42.7173H142.487C142.609 43.0881 142.847 43.3869 143.201 43.6138C143.555 43.8407 144.017 43.9541 144.587 43.9541C144.991 43.9541 145.345 43.896 145.649 43.7798C145.959 43.658 146.203 43.4948 146.38 43.29C146.557 43.0798 146.646 42.839 146.646 42.5679V42.5513C146.646 42.2469 146.524 41.9896 146.28 41.7793C146.037 41.5635 145.638 41.3892 145.085 41.2563L143.699 40.9243C143.14 40.7915 142.681 40.62 142.321 40.4097C141.961 40.1938 141.695 39.931 141.524 39.6211C141.352 39.3057 141.267 38.9349 141.267 38.5088V38.5005C141.267 38.0024 141.41 37.557 141.698 37.1641C141.992 36.7712 142.39 36.4613 142.894 36.2344C143.397 36.0075 143.964 35.894 144.595 35.894C145.221 35.894 145.774 35.9937 146.255 36.1929C146.742 36.3866 147.132 36.6632 147.426 37.0229C147.725 37.3826 147.907 37.806 147.974 38.293H146.554C146.46 37.9388 146.244 37.651 145.907 37.4297C145.569 37.2083 145.129 37.0977 144.587 37.0977C144.233 37.0977 143.917 37.1558 143.641 37.272C143.364 37.3826 143.145 37.5376 142.985 37.7368C142.824 37.936 142.744 38.1685 142.744 38.4341V38.4507C142.744 38.6499 142.797 38.827 142.902 38.9819C143.007 39.1369 143.17 39.2725 143.392 39.3887C143.613 39.5049 143.898 39.6073 144.247 39.6958L145.625 40.0278C146.466 40.2326 147.091 40.5259 147.5 40.9077C147.916 41.2896 148.123 41.8014 148.123 42.4434V42.46C148.123 42.9912 147.965 43.4616 147.65 43.8711C147.334 44.2751 146.906 44.5905 146.363 44.8174C145.826 45.0443 145.218 45.1577 144.537 45.1577ZM160.292 45.2822C159.462 45.2822 158.712 45.1356 158.042 44.8423C157.378 44.549 156.808 44.1284 156.333 43.5806C155.862 43.0327 155.5 42.3742 155.245 41.605C154.991 40.8358 154.863 39.9725 154.863 39.0151V38.9985C154.863 37.7368 155.087 36.6383 155.536 35.7031C155.984 34.7624 156.615 34.0347 157.428 33.52C158.247 32.9998 159.202 32.7397 160.292 32.7397C161.177 32.7397 161.966 32.8975 162.658 33.2129C163.355 33.5228 163.928 33.96 164.376 34.5244C164.83 35.0889 165.134 35.7502 165.289 36.5083L165.306 36.5913H163.795L163.77 36.5083C163.527 35.7336 163.109 35.1414 162.517 34.7319C161.924 34.3224 161.183 34.1177 160.292 34.1177C159.501 34.1177 158.812 34.3197 158.225 34.7236C157.644 35.1221 157.193 35.6865 156.872 36.417C156.551 37.1475 156.391 38.008 156.391 38.9985V39.0151C156.391 39.7677 156.479 40.4456 156.656 41.0488C156.839 41.652 157.099 42.1667 157.437 42.5928C157.78 43.0133 158.192 43.3371 158.673 43.564C159.155 43.7909 159.697 43.9043 160.3 43.9043C161.014 43.9043 161.639 43.7632 162.176 43.481C162.719 43.1932 163.139 42.7948 163.438 42.2856C163.737 41.7765 163.886 41.1844 163.886 40.5093V40.2188H160.524V38.9072H165.38V40.3682C165.38 41.1042 165.259 41.7738 165.015 42.377C164.777 42.9801 164.434 43.5003 163.986 43.9375C163.538 44.3691 163.001 44.7012 162.375 44.9336C161.75 45.166 161.056 45.2822 160.292 45.2822ZM167.846 45V36.0518H169.29V37.3799H169.423C169.594 36.9095 169.885 36.5443 170.294 36.2842C170.704 36.0241 171.21 35.894 171.813 35.894C171.952 35.894 172.087 35.9023 172.22 35.9189C172.359 35.93 172.464 35.9411 172.536 35.9521V37.355C172.386 37.3273 172.24 37.3079 172.096 37.2969C171.957 37.2803 171.808 37.272 171.647 37.272C171.188 37.272 170.781 37.3633 170.427 37.5459C170.073 37.7285 169.794 37.9831 169.589 38.3096C169.39 38.6361 169.29 39.0179 169.29 39.4551V45H167.846ZM176.777 45.1577C176.213 45.1577 175.704 45.0498 175.25 44.834C174.802 44.6182 174.445 44.311 174.179 43.9126C173.919 43.5142 173.789 43.0438 173.789 42.5015V42.4849C173.789 41.9536 173.916 41.4998 174.171 41.1235C174.425 40.7417 174.796 40.4429 175.283 40.2271C175.77 40.0112 176.36 39.884 177.051 39.8452L180.338 39.646V40.7998L177.226 40.999C176.545 41.0378 176.047 41.1789 175.731 41.4224C175.422 41.6659 175.267 42.009 175.267 42.4517V42.4683C175.267 42.922 175.438 43.2762 175.781 43.5308C176.124 43.7798 176.556 43.9043 177.076 43.9043C177.569 43.9043 178.006 43.8075 178.388 43.6138C178.77 43.4146 179.068 43.1462 179.284 42.8086C179.506 42.471 179.616 42.0892 179.616 41.6631V38.874C179.616 38.3206 179.447 37.9001 179.11 37.6123C178.778 37.319 178.277 37.1724 177.607 37.1724C177.071 37.1724 176.631 37.2692 176.288 37.4629C175.944 37.651 175.715 37.9194 175.599 38.2681L175.59 38.293H174.146L174.154 38.2432C174.232 37.7728 174.425 37.3633 174.735 37.0146C175.051 36.6605 175.458 36.3866 175.956 36.1929C176.454 35.9937 177.021 35.894 177.657 35.894C178.388 35.894 179.005 36.013 179.508 36.251C180.017 36.4889 180.402 36.832 180.662 37.2803C180.928 37.723 181.061 38.2542 181.061 38.874V45H179.616V43.6802H179.483C179.295 43.9956 179.066 44.264 178.794 44.4854C178.529 44.7067 178.227 44.8755 177.89 44.9917C177.552 45.1024 177.181 45.1577 176.777 45.1577ZM188.149 45.1577C187.734 45.1577 187.35 45.0941 186.996 44.9668C186.641 44.8395 186.326 44.6597 186.049 44.4272C185.773 44.1893 185.543 43.9043 185.36 43.5723H185.228V45H183.783V32.499H185.228V37.4629H185.36C185.526 37.1419 185.748 36.8652 186.024 36.6328C186.307 36.4004 186.628 36.2205 186.987 36.0933C187.353 35.9604 187.74 35.894 188.149 35.894C188.908 35.894 189.566 36.085 190.125 36.4668C190.689 36.8486 191.127 37.3854 191.437 38.0771C191.746 38.7689 191.901 39.5824 191.901 40.5176V40.5342C191.901 41.4639 191.746 42.2773 191.437 42.9746C191.127 43.6663 190.689 44.2031 190.125 44.585C189.566 44.9668 188.908 45.1577 188.149 45.1577ZM187.817 43.8794C188.365 43.8794 188.833 43.7466 189.22 43.481C189.608 43.2098 189.904 42.8252 190.108 42.3271C190.319 41.8236 190.424 41.2259 190.424 40.5342V40.5176C190.424 39.8203 190.319 39.2227 190.108 38.7246C189.904 38.2266 189.608 37.8447 189.22 37.5791C188.833 37.3079 188.365 37.1724 187.817 37.1724C187.275 37.1724 186.807 37.3079 186.415 37.5791C186.022 37.8503 185.72 38.2349 185.51 38.7329C185.299 39.231 185.194 39.8258 185.194 40.5176V40.5342C185.194 41.2204 185.299 41.8153 185.51 42.3188C185.72 42.8169 186.022 43.2015 186.415 43.4727C186.807 43.7438 187.275 43.8794 187.817 43.8794ZM203.033 45.2822C202.158 45.2822 201.395 45.1411 200.742 44.8589C200.094 44.5711 199.58 44.1782 199.198 43.6802C198.821 43.1766 198.603 42.6011 198.542 41.9536L198.534 41.8623H200.028L200.036 41.9536C200.075 42.3521 200.227 42.6979 200.493 42.9912C200.764 43.279 201.124 43.5031 201.572 43.6636C202.026 43.8241 202.54 43.9043 203.116 43.9043C203.658 43.9043 204.139 43.8185 204.56 43.647C204.986 43.4699 205.321 43.2264 205.564 42.9165C205.808 42.6066 205.93 42.2497 205.93 41.8457V41.8374C205.93 41.3394 205.747 40.9215 205.382 40.584C205.017 40.2409 204.422 39.978 203.597 39.7954L202.269 39.5049C201.068 39.2393 200.194 38.8298 199.646 38.2764C199.104 37.7174 198.833 37.0036 198.833 36.1348V36.1265C198.838 35.4624 199.018 34.8758 199.372 34.3667C199.732 33.8576 200.227 33.4591 200.858 33.1714C201.494 32.8836 202.225 32.7397 203.049 32.7397C203.846 32.7397 204.552 32.8836 205.166 33.1714C205.78 33.4536 206.267 33.8354 206.627 34.3169C206.992 34.7983 207.194 35.3379 207.233 35.9355L207.241 36.0518H205.747L205.73 35.9438C205.675 35.5897 205.531 35.277 205.299 35.0059C205.066 34.7292 204.757 34.5106 204.369 34.3501C203.982 34.1896 203.528 34.1121 203.008 34.1177C202.51 34.1177 202.062 34.1951 201.663 34.3501C201.265 34.505 200.946 34.7292 200.708 35.0225C200.476 35.3102 200.36 35.6644 200.36 36.085V36.0933C200.36 36.5692 200.537 36.9704 200.891 37.2969C201.245 37.6234 201.829 37.8752 202.643 38.0522L203.971 38.3511C204.806 38.5337 205.479 38.7716 205.988 39.0649C206.497 39.3582 206.868 39.7179 207.1 40.144C207.338 40.5646 207.457 41.0627 207.457 41.6382V41.6465C207.457 42.3936 207.274 43.0382 206.909 43.5806C206.544 44.1229 206.029 44.5435 205.365 44.8423C204.701 45.1356 203.924 45.2822 203.033 45.2822ZM212.944 45.0664C212.025 45.0664 211.358 44.881 210.943 44.5103C210.534 44.1395 210.329 43.528 210.329 42.6758V37.2471H208.918V36.0518H210.329V33.7358H211.823V36.0518H213.782V37.2471H211.823V42.3105C211.823 42.8363 211.923 43.2153 212.122 43.4478C212.321 43.6746 212.653 43.7881 213.118 43.7881C213.245 43.7881 213.353 43.7853 213.442 43.7798C213.536 43.7743 213.649 43.766 213.782 43.7549V44.9834C213.644 45.0055 213.506 45.0249 213.367 45.0415C213.229 45.0581 213.088 45.0664 212.944 45.0664ZM218.397 45.1577C217.833 45.1577 217.324 45.0498 216.87 44.834C216.422 44.6182 216.065 44.311 215.799 43.9126C215.539 43.5142 215.409 43.0438 215.409 42.5015V42.4849C215.409 41.9536 215.536 41.4998 215.791 41.1235C216.046 40.7417 216.416 40.4429 216.903 40.2271C217.39 40.0112 217.98 39.884 218.671 39.8452L221.958 39.646V40.7998L218.846 40.999C218.165 41.0378 217.667 41.1789 217.352 41.4224C217.042 41.6659 216.887 42.009 216.887 42.4517V42.4683C216.887 42.922 217.058 43.2762 217.401 43.5308C217.744 43.7798 218.176 43.9043 218.696 43.9043C219.189 43.9043 219.626 43.8075 220.008 43.6138C220.39 43.4146 220.688 43.1462 220.904 42.8086C221.126 42.471 221.236 42.0892 221.236 41.6631V38.874C221.236 38.3206 221.068 37.9001 220.73 37.6123C220.398 37.319 219.897 37.1724 219.228 37.1724C218.691 37.1724 218.251 37.2692 217.908 37.4629C217.565 37.651 217.335 37.9194 217.219 38.2681L217.21 38.293H215.766L215.774 38.2432C215.852 37.7728 216.046 37.3633 216.355 37.0146C216.671 36.6605 217.078 36.3866 217.576 36.1929C218.074 35.9937 218.641 35.894 219.277 35.894C220.008 35.894 220.625 36.013 221.128 36.251C221.638 36.4889 222.022 36.832 222.282 37.2803C222.548 37.723 222.681 38.2542 222.681 38.874V45H221.236V43.6802H221.104C220.915 43.9956 220.686 44.264 220.415 44.4854C220.149 44.7067 219.847 44.8755 219.51 44.9917C219.172 45.1024 218.801 45.1577 218.397 45.1577ZM228.5 45.0664C227.581 45.0664 226.914 44.881 226.499 44.5103C226.09 44.1395 225.885 43.528 225.885 42.6758V37.2471H224.474V36.0518H225.885V33.7358H227.379V36.0518H229.338V37.2471H227.379V42.3105C227.379 42.8363 227.479 43.2153 227.678 43.4478C227.877 43.6746 228.209 43.7881 228.674 43.7881C228.801 43.7881 228.909 43.7853 228.998 43.7798C229.092 43.7743 229.205 43.766 229.338 43.7549V44.9834C229.2 45.0055 229.061 45.0249 228.923 45.0415C228.785 45.0581 228.643 45.0664 228.5 45.0664ZM231.529 45V36.0518H232.974V45H231.529ZM232.26 34.3252C231.989 34.3252 231.753 34.2284 231.554 34.0347C231.361 33.8354 231.264 33.6003 231.264 33.3291C231.264 33.0524 231.361 32.8172 231.554 32.6235C231.753 32.4299 231.989 32.333 232.26 32.333C232.536 32.333 232.772 32.4299 232.965 32.6235C233.159 32.8172 233.256 33.0524 233.256 33.3291C233.256 33.6003 233.159 33.8354 232.965 34.0347C232.772 34.2284 232.536 34.3252 232.26 34.3252ZM239.374 45.1577C238.527 45.1577 237.794 44.9723 237.174 44.6016C236.56 44.2253 236.084 43.6912 235.746 42.9995C235.414 42.3078 235.248 41.486 235.248 40.5342V40.5176C235.248 39.5602 235.414 38.7357 235.746 38.0439C236.084 37.3522 236.56 36.821 237.174 36.4502C237.794 36.0794 238.527 35.894 239.374 35.894C240.226 35.894 240.959 36.0794 241.573 36.4502C242.188 36.821 242.661 37.3522 242.993 38.0439C243.33 38.7357 243.499 39.5602 243.499 40.5176V40.5342C243.499 41.486 243.33 42.3078 242.993 42.9995C242.661 43.6912 242.188 44.2253 241.573 44.6016C240.959 44.9723 240.226 45.1577 239.374 45.1577ZM239.374 43.8794C239.938 43.8794 240.417 43.7466 240.81 43.481C241.202 43.2153 241.501 42.8335 241.706 42.3354C241.916 41.8374 242.021 41.237 242.021 40.5342V40.5176C242.021 39.8092 241.916 39.2061 241.706 38.708C241.501 38.21 241.202 37.8309 240.81 37.5708C240.417 37.3052 239.938 37.1724 239.374 37.1724C238.809 37.1724 238.33 37.3052 237.938 37.5708C237.545 37.8309 237.243 38.21 237.033 38.708C236.828 39.2061 236.726 39.8092 236.726 40.5176V40.5342C236.726 41.237 236.828 41.8374 237.033 42.3354C237.243 42.8335 237.545 43.2153 237.938 43.481C238.33 43.7466 238.809 43.8794 239.374 43.8794ZM245.74 45V36.0518H247.185V37.3965H247.317C247.544 36.9206 247.871 36.5526 248.297 36.2925C248.723 36.0269 249.265 35.894 249.924 35.894C250.931 35.894 251.703 36.1818 252.24 36.7573C252.782 37.3273 253.053 38.1436 253.053 39.2061V45H251.609V39.5547C251.609 38.7467 251.437 38.1491 251.094 37.7617C250.757 37.3688 250.231 37.1724 249.517 37.1724C249.041 37.1724 248.629 37.2747 248.28 37.4795C247.932 37.6842 247.66 37.9748 247.467 38.3511C247.279 38.7274 247.185 39.1784 247.185 39.7041V45H245.74Z" fill="white"/>
<rect x="20" y="76" width="280" height="38" rx="4" fill="#DCDCDC"/>
<g clip-path="url(#clip1_87_235)">
<path d="M36 102.992C40.3765 102.992 44 99.3626 44 94.9961C44 90.6218 40.3686 87 35.9922 87C31.6235 87 28 90.6218 28 94.9961C28 99.3626 31.6314 102.992 36 102.992ZM36 101.66C32.298 101.66 29.3412 98.6963 29.3412 94.9961C29.3412 91.296 32.2902 88.3327 35.9922 88.3327C39.6941 88.3327 42.6667 91.296 42.6667 94.9961C42.6667 98.6963 39.702 101.66 36 101.66Z" fill="#007AFF"/>
</g>
<path d="M53.4526 101V89.022H55.9595V98.9331H61.2886V101H53.4526ZM66.9248 101.191C66.0007 101.191 65.2038 101 64.5342 100.618C63.8701 100.231 63.3582 99.6829 62.9985 98.9746C62.6388 98.2663 62.459 97.4224 62.459 96.4429V96.4346C62.459 95.4661 62.6361 94.625 62.9902 93.9111C63.3499 93.1973 63.8563 92.6439 64.5093 92.251C65.1678 91.8581 65.9398 91.6616 66.8252 91.6616C67.7161 91.6616 68.4854 91.8525 69.1328 92.2344C69.7803 92.6162 70.2783 93.1502 70.627 93.8364C70.9756 94.5226 71.1499 95.3278 71.1499 96.252V97.0073H63.6709V95.4883H69.9878L68.8506 96.9243V95.9531C68.8506 95.4053 68.7648 94.9487 68.5933 94.5835C68.4272 94.2183 68.1948 93.9443 67.896 93.7617C67.6027 93.5736 67.2596 93.4795 66.8667 93.4795C66.4793 93.4795 66.1335 93.5763 65.8291 93.77C65.5303 93.9582 65.2923 94.2376 65.1152 94.6084C64.9437 94.9736 64.8579 95.4219 64.8579 95.9531V96.9326C64.8579 97.4473 64.9437 97.8872 65.1152 98.2524C65.2868 98.6177 65.5303 98.8971 65.8457 99.0908C66.1611 99.2845 66.5374 99.3813 66.9746 99.3813C67.3288 99.3813 67.6304 99.3288 67.8794 99.2236C68.1284 99.1185 68.3276 98.9967 68.4771 98.8584C68.632 98.7145 68.7371 98.5845 68.7925 98.4683L68.8174 98.4185H71.0752L71.0586 98.5015C70.9867 98.7892 70.8566 99.0908 70.6685 99.4062C70.4803 99.7161 70.2202 100.007 69.8882 100.278C69.5617 100.549 69.1522 100.77 68.6597 100.942C68.1727 101.108 67.5944 101.191 66.9248 101.191ZM78.5293 101.141C78.0977 101.141 77.7048 101.08 77.3506 100.958C76.9964 100.831 76.6865 100.651 76.4209 100.419C76.1608 100.187 75.9505 99.9071 75.79 99.5806H75.6406V101H73.2168V88.3662H75.6406V93.3218H75.79C75.945 92.9842 76.1553 92.6965 76.4209 92.4585C76.6921 92.2205 77.0047 92.0379 77.3589 91.9106C77.7186 91.7778 78.1087 91.7114 78.5293 91.7114C79.2985 91.7114 79.9598 91.8996 80.5132 92.2759C81.0666 92.6522 81.4927 93.1917 81.7915 93.8945C82.0903 94.5973 82.2397 95.4385 82.2397 96.418V96.4346C82.2397 97.4085 82.0876 98.2469 81.7832 98.9497C81.4844 99.6525 81.0583 100.195 80.5049 100.577C79.9515 100.953 79.293 101.141 78.5293 101.141ZM77.6992 99.1323C78.1309 99.1323 78.4989 99.0244 78.8032 98.8086C79.1131 98.5928 79.3511 98.2829 79.5171 97.8789C79.6886 97.4749 79.7744 96.9935 79.7744 96.4346V96.418C79.7744 95.859 79.6886 95.3804 79.5171 94.9819C79.3511 94.578 79.1131 94.2681 78.8032 94.0522C78.4989 93.8309 78.1309 93.7202 77.6992 93.7202C77.2786 93.7202 76.9106 93.8309 76.5952 94.0522C76.2853 94.2681 76.0446 94.578 75.873 94.9819C75.7015 95.3804 75.6157 95.8618 75.6157 96.4263V96.4429C75.6157 96.9963 75.6987 97.4749 75.8647 97.8789C76.0363 98.2829 76.277 98.5928 76.5869 98.8086C76.9023 99.0244 77.2731 99.1323 77.6992 99.1323ZM86.6973 101.141C86.1217 101.141 85.6071 101.03 85.1533 100.809C84.7051 100.582 84.3537 100.264 84.0991 99.8545C83.8446 99.4395 83.7173 98.9552 83.7173 98.4019V98.3853C83.7173 97.8374 83.8529 97.367 84.124 96.9741C84.4007 96.5812 84.8019 96.2741 85.3276 96.0527C85.8589 95.8258 86.5036 95.6903 87.2617 95.646L90.665 95.4385V96.916L87.627 97.1152C87.1068 97.1429 86.7194 97.2536 86.4648 97.4473C86.2103 97.641 86.083 97.9038 86.083 98.2358V98.2524C86.083 98.6011 86.2158 98.875 86.4814 99.0742C86.7471 99.2734 87.0902 99.373 87.5107 99.373C87.887 99.373 88.2218 99.2983 88.5151 99.1489C88.8084 98.9995 89.0409 98.7975 89.2124 98.543C89.384 98.2829 89.4697 97.9924 89.4697 97.6714V94.7578C89.4697 94.3594 89.3369 94.055 89.0713 93.8447C88.8112 93.6289 88.4321 93.521 87.9341 93.521C87.4969 93.521 87.14 93.5957 86.8633 93.7451C86.5921 93.889 86.4095 94.0965 86.3154 94.3677L86.2988 94.4009H84.0576L84.0659 94.3262C84.1323 93.7894 84.3343 93.3218 84.6719 92.9233C85.015 92.5249 85.4743 92.215 86.0498 91.9937C86.6309 91.7723 87.3032 91.6616 88.0669 91.6616C88.8748 91.6616 89.561 91.7861 90.1255 92.0352C90.6899 92.2786 91.1188 92.6328 91.4121 93.0977C91.7109 93.557 91.8604 94.1104 91.8604 94.7578V101H89.4697V99.7881H89.3203C89.1654 100.07 88.9578 100.314 88.6978 100.519C88.4432 100.718 88.1444 100.873 87.8013 100.983C87.4637 101.089 87.0957 101.141 86.6973 101.141ZM94.3174 101V88.3662H96.7412V101H94.3174ZM100.07 101L97.2642 97.0322L99.0737 95.5796L102.934 101H100.07ZM96.5752 98.1113L96.4922 95.4717H96.8906L99.9453 91.8608H102.693L98.9326 96.0112L97.6377 96.9824L96.5752 98.1113ZM110.338 101V99.1323H113.824C114.549 99.1323 115.1 98.9829 115.476 98.6841C115.858 98.3853 116.049 97.9508 116.049 97.3809V97.3643C116.049 96.9935 115.96 96.6808 115.783 96.4263C115.612 96.1717 115.354 95.9808 115.011 95.8535C114.674 95.7207 114.259 95.6543 113.766 95.6543H110.338V94.0024H113.476C114.151 94.0024 114.668 93.8669 115.028 93.5957C115.388 93.3245 115.567 92.9427 115.567 92.4502V92.4336C115.567 91.9466 115.401 91.5675 115.069 91.2964C114.743 91.0197 114.281 90.8813 113.683 90.8813H110.338V89.022H114.322C115.103 89.022 115.767 89.1437 116.314 89.3872C116.868 89.6252 117.291 89.9683 117.584 90.4165C117.883 90.8592 118.033 91.3877 118.033 92.002V92.0186C118.033 92.4391 117.936 92.832 117.742 93.1973C117.554 93.5625 117.297 93.8669 116.97 94.1104C116.644 94.3538 116.276 94.506 115.866 94.5669V94.7163C116.397 94.755 116.868 94.9045 117.277 95.1646C117.692 95.4246 118.016 95.7622 118.249 96.1772C118.486 96.5923 118.605 97.0544 118.605 97.5635V97.5801C118.605 98.2773 118.437 98.8833 118.099 99.3979C117.767 99.9071 117.291 100.303 116.671 100.585C116.057 100.862 115.321 101 114.463 101H110.338ZM109.084 101V89.022H111.591V101H109.084ZM123.652 101.191C122.972 101.191 122.399 101.058 121.934 100.792C121.475 100.527 121.129 100.139 120.896 99.6304C120.664 99.1157 120.548 98.4959 120.548 97.771V91.8608H122.972V97.2148C122.972 97.8623 123.099 98.3521 123.354 98.6841C123.614 99.0161 124.031 99.1821 124.607 99.1821C124.906 99.1821 125.169 99.1351 125.396 99.041C125.628 98.9414 125.822 98.8031 125.977 98.626C126.132 98.4489 126.248 98.2358 126.325 97.9868C126.408 97.7323 126.45 97.45 126.45 97.1401V91.8608H128.874V101H126.45V99.5889H126.3C126.162 99.9209 125.968 100.209 125.719 100.452C125.47 100.69 125.171 100.873 124.823 101C124.474 101.127 124.084 101.191 123.652 101.191ZM131.389 101V88.3662H133.812V101H131.389ZM139.341 101.191C138.66 101.191 138.087 101.058 137.623 100.792C137.163 100.527 136.817 100.139 136.585 99.6304C136.353 99.1157 136.236 98.4959 136.236 97.771V91.8608H138.66V97.2148C138.66 97.8623 138.787 98.3521 139.042 98.6841C139.302 99.0161 139.72 99.1821 140.295 99.1821C140.594 99.1821 140.857 99.1351 141.084 99.041C141.316 98.9414 141.51 98.8031 141.665 98.626C141.82 98.4489 141.936 98.2358 142.014 97.9868C142.097 97.7323 142.138 97.45 142.138 97.1401V91.8608H144.562V101H142.138V99.5889H141.989C141.85 99.9209 141.657 100.209 141.408 100.452C141.159 100.69 140.86 100.873 140.511 101C140.163 101.127 139.772 101.191 139.341 101.191ZM150.63 101.191C149.8 101.191 149.091 101.077 148.505 100.851C147.924 100.618 147.467 100.3 147.135 99.896C146.809 99.492 146.618 99.0299 146.562 98.5098L146.554 98.4766H148.937L148.953 98.5098C149.053 98.792 149.241 99.0244 149.518 99.207C149.8 99.3896 150.179 99.481 150.655 99.481C150.965 99.481 151.236 99.4395 151.468 99.3564C151.701 99.2679 151.883 99.1489 152.016 98.9995C152.149 98.8501 152.215 98.6758 152.215 98.4766V98.46C152.215 98.2165 152.116 98.0145 151.917 97.854C151.717 97.6935 151.385 97.5607 150.92 97.4556L149.393 97.1318C148.812 97.0101 148.328 96.833 147.94 96.6006C147.553 96.3626 147.263 96.0721 147.069 95.729C146.881 95.3859 146.787 94.9875 146.787 94.5337V94.5254C146.787 93.9499 146.944 93.4491 147.26 93.0229C147.581 92.5913 148.026 92.2565 148.596 92.0186C149.172 91.7806 149.839 91.6616 150.597 91.6616C151.394 91.6616 152.071 91.7834 152.63 92.0269C153.189 92.2648 153.618 92.5858 153.917 92.9897C154.221 93.3882 154.39 93.8337 154.423 94.3262V94.3594H152.174L152.166 94.3179C152.099 94.0688 151.933 93.8503 151.667 93.6621C151.402 93.4684 151.042 93.3716 150.588 93.3716C150.312 93.3716 150.065 93.4131 149.85 93.4961C149.634 93.5791 149.462 93.6953 149.335 93.8447C149.213 93.9941 149.152 94.1712 149.152 94.376V94.3843C149.152 94.5448 149.194 94.6859 149.277 94.8076C149.36 94.9294 149.495 95.0345 149.684 95.123C149.872 95.2116 150.124 95.2918 150.439 95.3638L151.958 95.6875C152.871 95.8867 153.546 96.1855 153.983 96.584C154.421 96.9824 154.639 97.5192 154.639 98.1943V98.2026C154.639 98.8058 154.468 99.3315 154.125 99.7798C153.781 100.228 153.308 100.577 152.705 100.826C152.102 101.069 151.41 101.191 150.63 101.191ZM166.459 101.307C165.569 101.307 164.769 101.163 164.061 100.875C163.352 100.582 162.749 100.164 162.251 99.6221C161.758 99.0742 161.379 98.4129 161.114 97.6382C160.848 96.8579 160.715 95.9808 160.715 95.0068V94.9902C160.715 93.7064 160.948 92.5968 161.413 91.6616C161.877 90.7209 162.536 89.9959 163.388 89.4868C164.24 88.9722 165.245 88.7148 166.401 88.7148C167.348 88.7148 168.194 88.8836 168.941 89.2212C169.688 89.5588 170.297 90.0291 170.768 90.6323C171.243 91.2355 171.54 91.9355 171.656 92.7324L171.672 92.8154H169.182L169.166 92.7324C169 92.1348 168.673 91.6699 168.186 91.3379C167.699 91.0059 167.104 90.8398 166.401 90.8398C165.759 90.8398 165.203 91.0086 164.733 91.3462C164.268 91.6782 163.908 92.1541 163.654 92.7739C163.399 93.3882 163.272 94.1187 163.272 94.9653V94.9819C163.272 95.6294 163.347 96.2132 163.496 96.7334C163.646 97.248 163.861 97.688 164.144 98.0532C164.426 98.4185 164.766 98.6979 165.165 98.8916C165.563 99.0853 166.008 99.1821 166.501 99.1821C167.049 99.1821 167.533 99.077 167.954 98.8667C168.374 98.6564 168.703 98.3631 168.941 97.9868C169.179 97.6105 169.307 97.1706 169.323 96.667L169.332 96.4429H166.742V94.6167H171.772V96.1357C171.772 96.9271 171.65 97.641 171.407 98.2773C171.163 98.9137 170.809 99.4588 170.344 99.9126C169.879 100.361 169.318 100.707 168.659 100.95C168.006 101.188 167.273 101.307 166.459 101.307ZM173.938 101V91.8608H176.362V93.2803H176.512C176.661 92.7822 176.935 92.3976 177.333 92.1265C177.732 91.8498 178.227 91.7114 178.819 91.7114C178.985 91.7114 179.146 91.7225 179.301 91.7446C179.461 91.7668 179.602 91.7944 179.724 91.8276V93.9443C179.542 93.9001 179.356 93.8669 179.168 93.8447C178.985 93.8171 178.8 93.8032 178.612 93.8032C178.153 93.8032 177.754 93.889 177.417 94.0605C177.079 94.2266 176.819 94.4645 176.636 94.7744C176.454 95.0843 176.362 95.4551 176.362 95.8867V101H173.938ZM183.667 101.141C183.091 101.141 182.577 101.03 182.123 100.809C181.675 100.582 181.323 100.264 181.069 99.8545C180.814 99.4395 180.687 98.9552 180.687 98.4019V98.3853C180.687 97.8374 180.823 97.367 181.094 96.9741C181.37 96.5812 181.772 96.2741 182.297 96.0527C182.829 95.8258 183.473 95.6903 184.231 95.646L187.635 95.4385V96.916L184.597 97.1152C184.076 97.1429 183.689 97.2536 183.435 97.4473C183.18 97.641 183.053 97.9038 183.053 98.2358V98.2524C183.053 98.6011 183.186 98.875 183.451 99.0742C183.717 99.2734 184.06 99.373 184.48 99.373C184.857 99.373 185.192 99.2983 185.485 99.1489C185.778 98.9995 186.011 98.7975 186.182 98.543C186.354 98.2829 186.439 97.9924 186.439 97.6714V94.7578C186.439 94.3594 186.307 94.055 186.041 93.8447C185.781 93.6289 185.402 93.521 184.904 93.521C184.467 93.521 184.11 93.5957 183.833 93.7451C183.562 93.889 183.379 94.0965 183.285 94.3677L183.269 94.4009H181.027L181.036 94.3262C181.102 93.7894 181.304 93.3218 181.642 92.9233C181.985 92.5249 182.444 92.215 183.02 91.9937C183.601 91.7723 184.273 91.6616 185.037 91.6616C185.845 91.6616 186.531 91.7861 187.095 92.0352C187.66 92.2786 188.089 92.6328 188.382 93.0977C188.681 93.557 188.83 94.1104 188.83 94.7578V101H186.439V99.7881H186.29C186.135 100.07 185.928 100.314 185.667 100.519C185.413 100.718 185.114 100.873 184.771 100.983C184.433 101.089 184.065 101.141 183.667 101.141ZM196.6 101.141C196.168 101.141 195.775 101.08 195.421 100.958C195.067 100.831 194.757 100.651 194.491 100.419C194.231 100.187 194.021 99.9071 193.86 99.5806H193.711V101H191.287V88.3662H193.711V93.3218H193.86C194.015 92.9842 194.226 92.6965 194.491 92.4585C194.762 92.2205 195.075 92.0379 195.429 91.9106C195.789 91.7778 196.179 91.7114 196.6 91.7114C197.369 91.7114 198.03 91.8996 198.583 92.2759C199.137 92.6522 199.563 93.1917 199.862 93.8945C200.161 94.5973 200.31 95.4385 200.31 96.418V96.4346C200.31 97.4085 200.158 98.2469 199.854 98.9497C199.555 99.6525 199.129 100.195 198.575 100.577C198.022 100.953 197.363 101.141 196.6 101.141ZM195.77 99.1323C196.201 99.1323 196.569 99.0244 196.874 98.8086C197.183 98.5928 197.421 98.2829 197.587 97.8789C197.759 97.4749 197.845 96.9935 197.845 96.4346V96.418C197.845 95.859 197.759 95.3804 197.587 94.9819C197.421 94.578 197.183 94.2681 196.874 94.0522C196.569 93.8309 196.201 93.7202 195.77 93.7202C195.349 93.7202 194.981 93.8309 194.666 94.0522C194.356 94.2681 194.115 94.578 193.943 94.9819C193.772 95.3804 193.686 95.8618 193.686 96.4263V96.4429C193.686 96.9963 193.769 97.4749 193.935 97.8789C194.107 98.2829 194.347 98.5928 194.657 98.8086C194.973 99.0244 195.343 99.1323 195.77 99.1323ZM211.184 101.307C210.232 101.307 209.405 101.163 208.702 100.875C207.999 100.588 207.446 100.184 207.042 99.6636C206.644 99.1379 206.419 98.5208 206.37 97.8125L206.361 97.6797H208.777L208.785 97.7627C208.818 98.0615 208.94 98.3244 209.15 98.5513C209.366 98.7726 209.654 98.9469 210.014 99.0742C210.373 99.2015 210.786 99.2651 211.25 99.2651C211.699 99.2651 212.092 99.1987 212.429 99.0659C212.767 98.9331 213.03 98.7505 213.218 98.5181C213.411 98.2801 213.508 98.009 213.508 97.7046V97.6963C213.508 97.3034 213.348 96.988 213.027 96.75C212.711 96.512 212.18 96.3156 211.433 96.1606L210.171 95.9033C208.926 95.6488 208.021 95.231 207.457 94.6499C206.893 94.0688 206.61 93.3245 206.61 92.417V92.4087C206.61 91.6672 206.807 91.0197 207.2 90.4663C207.593 89.9129 208.132 89.484 208.818 89.1797C209.505 88.8698 210.29 88.7148 211.176 88.7148C212.105 88.7148 212.902 88.867 213.566 89.1714C214.236 89.4702 214.759 89.8825 215.135 90.4082C215.512 90.9284 215.725 91.5233 215.774 92.1929L215.783 92.3008H213.425L213.409 92.2012C213.359 91.9134 213.237 91.6616 213.043 91.4458C212.855 91.23 212.601 91.0612 212.28 90.9395C211.964 90.8122 211.596 90.7485 211.176 90.7485C210.766 90.7485 210.407 90.8094 210.097 90.9312C209.787 91.0529 209.546 91.2244 209.375 91.4458C209.203 91.6616 209.117 91.9189 209.117 92.2178V92.2261C209.117 92.6134 209.272 92.9316 209.582 93.1807C209.897 93.4242 210.407 93.6178 211.109 93.7617L212.379 94.019C213.226 94.1906 213.915 94.423 214.446 94.7163C214.983 95.0096 215.379 95.3776 215.633 95.8203C215.888 96.263 216.015 96.797 216.015 97.4224V97.4307C216.015 98.222 215.819 98.9082 215.426 99.4893C215.038 100.065 214.482 100.513 213.757 100.834C213.038 101.149 212.18 101.307 211.184 101.307ZM221.942 101.033C220.835 101.033 220.038 100.84 219.551 100.452C219.064 100.059 218.821 99.4201 218.821 98.5347V93.687H217.41V91.8608H218.821V89.6777H221.27V91.8608H223.154V93.687H221.27V97.9785C221.27 98.388 221.361 98.6896 221.543 98.8833C221.732 99.0715 222.03 99.1655 222.44 99.1655C222.595 99.1655 222.722 99.1628 222.822 99.1572C222.927 99.1462 223.038 99.1351 223.154 99.124V100.925C223.004 100.953 222.825 100.978 222.614 101C222.404 101.022 222.18 101.033 221.942 101.033ZM227.661 101.141C227.086 101.141 226.571 101.03 226.117 100.809C225.669 100.582 225.318 100.264 225.063 99.8545C224.808 99.4395 224.681 98.9552 224.681 98.4019V98.3853C224.681 97.8374 224.817 97.367 225.088 96.9741C225.365 96.5812 225.766 96.2741 226.292 96.0527C226.823 95.8258 227.467 95.6903 228.226 95.646L231.629 95.4385V96.916L228.591 97.1152C228.071 97.1429 227.683 97.2536 227.429 97.4473C227.174 97.641 227.047 97.9038 227.047 98.2358V98.2524C227.047 98.6011 227.18 98.875 227.445 99.0742C227.711 99.2734 228.054 99.373 228.475 99.373C228.851 99.373 229.186 99.2983 229.479 99.1489C229.772 98.9995 230.005 98.7975 230.176 98.543C230.348 98.2829 230.434 97.9924 230.434 97.6714V94.7578C230.434 94.3594 230.301 94.055 230.035 93.8447C229.775 93.6289 229.396 93.521 228.898 93.521C228.461 93.521 228.104 93.5957 227.827 93.7451C227.556 93.889 227.373 94.0965 227.279 94.3677L227.263 94.4009H225.021L225.03 94.3262C225.096 93.7894 225.298 93.3218 225.636 92.9233C225.979 92.5249 226.438 92.215 227.014 91.9937C227.595 91.7723 228.267 91.6616 229.031 91.6616C229.839 91.6616 230.525 91.7861 231.089 92.0352C231.654 92.2786 232.083 92.6328 232.376 93.0977C232.675 93.557 232.824 94.1104 232.824 94.7578V101H230.434V99.7881H230.284C230.129 100.07 229.922 100.314 229.662 100.519C229.407 100.718 229.108 100.873 228.765 100.983C228.428 101.089 228.06 101.141 227.661 101.141ZM238.992 101.033C237.885 101.033 237.088 100.84 236.601 100.452C236.114 100.059 235.871 99.4201 235.871 98.5347V93.687H234.459V91.8608H235.871V89.6777H238.319V91.8608H240.204V93.687H238.319V97.9785C238.319 98.388 238.411 98.6896 238.593 98.8833C238.781 99.0715 239.08 99.1655 239.49 99.1655C239.645 99.1655 239.772 99.1628 239.872 99.1572C239.977 99.1462 240.087 99.1351 240.204 99.124V100.925C240.054 100.953 239.874 100.978 239.664 101C239.454 101.022 239.23 101.033 238.992 101.033ZM242.237 101V91.8608H244.661V101H242.237ZM243.458 90.458C243.087 90.458 242.766 90.328 242.495 90.0679C242.223 89.8022 242.088 89.484 242.088 89.1133C242.088 88.737 242.223 88.4188 242.495 88.1587C242.766 87.8931 243.087 87.7603 243.458 87.7603C243.834 87.7603 244.155 87.8931 244.42 88.1587C244.686 88.4188 244.819 88.737 244.819 89.1133C244.819 89.484 244.686 89.8022 244.42 90.0679C244.155 90.328 243.834 90.458 243.458 90.458ZM251.161 101.191C250.225 101.191 249.42 101.003 248.745 100.626C248.07 100.245 247.553 99.6995 247.193 98.9912C246.833 98.2773 246.653 97.4251 246.653 96.4346V96.418C246.653 95.4329 246.836 94.5863 247.201 93.8779C247.566 93.1696 248.084 92.6245 248.753 92.2427C249.429 91.8553 250.231 91.6616 251.161 91.6616C252.09 91.6616 252.89 91.8525 253.56 92.2344C254.235 92.6162 254.755 93.1641 255.12 93.8779C255.485 94.5863 255.668 95.4329 255.668 96.418V96.4346C255.668 97.4251 255.488 98.2773 255.128 98.9912C254.769 99.6995 254.251 100.245 253.576 100.626C252.907 101.003 252.101 101.191 251.161 101.191ZM251.161 99.29C251.592 99.29 251.958 99.1766 252.256 98.9497C252.555 98.7228 252.785 98.3963 252.945 97.9702C253.106 97.5441 253.186 97.0322 253.186 96.4346V96.418C253.186 95.8203 253.106 95.3112 252.945 94.8906C252.785 94.4645 252.552 94.138 252.248 93.9111C251.949 93.6787 251.587 93.5625 251.161 93.5625C250.735 93.5625 250.369 93.6787 250.065 93.9111C249.766 94.138 249.536 94.4645 249.376 94.8906C249.215 95.3112 249.135 95.8203 249.135 96.418V96.4346C249.135 97.0378 249.213 97.5524 249.368 97.9785C249.528 98.4046 249.758 98.7311 250.057 98.958C250.361 99.1794 250.729 99.29 251.161 99.29ZM257.644 101V91.8608H260.067V93.272H260.217C260.427 92.7739 260.754 92.381 261.196 92.0933C261.639 91.8055 262.187 91.6616 262.84 91.6616C263.858 91.6616 264.633 91.9604 265.164 92.5581C265.701 93.1502 265.969 93.9941 265.969 95.0898V101H263.545V95.6377C263.545 94.9902 263.41 94.5005 263.139 94.1685C262.868 93.8364 262.444 93.6704 261.869 93.6704C261.498 93.6704 261.177 93.7562 260.906 93.9277C260.64 94.0938 260.433 94.3289 260.283 94.6333C260.139 94.9377 260.067 95.2974 260.067 95.7124V101H257.644Z" fill="#808080"/>
<rect x="0.5" y="0.5" width="319" height="131" rx="4.5" stroke="#9747FF" stroke-dasharray="10 5"/>
<defs>
<clipPath id="clip0_87_235">
<rect width="16" height="16" fill="white" transform="translate(28 31)"/>
</clipPath>
<clipPath id="clip1_87_235">
<rect width="16" height="16" fill="white" transform="translate(28 87)"/>
</clipPath>
</defs>
</svg>
