<svg width="25" height="25" viewBox="0 0 25 25" fill="none" xmlns="http://www.w3.org/2000/svg">
<path d="M0 12.1094C0 5.41992 5.41992 0 12.1094 0C18.7988 0 24.2188 5.41992 24.2188 12.1094C24.2188 18.7988 18.7988 24.2188 12.1094 24.2188C5.41992 24.2188 0 18.7988 0 12.1094ZM11.2793 6.54785L4.66309 13.1641C4.2041 13.623 4.2041 14.3652 4.66309 14.8193L5.49316 15.6494C5.95215 16.1084 6.69434 16.1084 7.14844 15.6494L12.1094 10.6885L17.0703 15.6494C17.5293 16.1084 18.2715 16.1084 18.7256 15.6494L19.5557 14.8193C20.0146 14.3604 20.0146 13.6182 19.5557 13.1641L12.9395 6.54785C12.4805 6.08887 11.7383 6.08887 11.2793 6.54785Z" fill="#315BEC"/>
</svg>
