<svg width="320" height="132" viewBox="0 0 320 132" fill="none" xmlns="http://www.w3.org/2000/svg">
<rect x="0.5" y="0.5" width="319" height="131" rx="4.5" fill="black"/>
<g clip-path="url(#clip0_87_262)">
<path d="M29.1208 39.5478L35.2992 39.5733C35.4264 39.5733 35.4687 39.6157 35.4687 39.7431L35.4857 45.8833C35.4857 47.1488 37.0028 47.446 37.5706 46.2146L43.8337 32.7196C44.4017 31.4797 43.4269 30.6559 42.2404 31.2164L28.697 37.5095C27.6122 38.0106 27.8241 39.5393 29.1208 39.5478Z" fill="#FF3B30"/>
</g>
<path d="M56.0093 45L52.7471 33.022H54.3076L56.6899 42.7588H56.7896L59.4707 33.022H60.9814L63.6626 42.7588H63.7622L66.1445 33.022H67.7051L64.4429 45H63.0317L60.2759 35.5454H60.1763L57.4204 45H56.0093ZM69.8799 45V32.499H71.3242V37.3965H71.457C71.6839 36.9206 72.0104 36.5526 72.4365 36.2925C72.8626 36.0269 73.4049 35.894 74.0635 35.894C74.7331 35.894 75.3003 36.0241 75.7651 36.2842C76.23 36.5387 76.5841 36.9123 76.8276 37.4048C77.0711 37.8973 77.1929 38.4977 77.1929 39.2061V45H75.7485V39.5547C75.7485 38.7467 75.577 38.1491 75.2339 37.7617C74.8963 37.3688 74.3706 37.1724 73.6567 37.1724C73.1808 37.1724 72.7686 37.2747 72.4199 37.4795C72.0713 37.6842 71.8001 37.9748 71.6064 38.3511C71.4183 38.7274 71.3242 39.1784 71.3242 39.7041V45H69.8799ZM83.46 45.1577C82.6077 45.1577 81.8745 44.9696 81.2603 44.5933C80.6515 44.217 80.1812 43.6857 79.8491 42.9995C79.5226 42.3078 79.3594 41.4943 79.3594 40.5591V40.5508C79.3594 39.6266 79.5226 38.8159 79.8491 38.1187C80.1812 37.4214 80.6488 36.8763 81.252 36.4834C81.8551 36.0905 82.5607 35.894 83.3687 35.894C84.1821 35.894 84.8794 36.0822 85.4604 36.4585C86.047 36.8348 86.4953 37.3605 86.8052 38.0356C87.1206 38.7052 87.2783 39.4855 87.2783 40.3765V40.9409H80.1064V39.7871H86.5396L85.8257 40.8413V40.2686C85.8257 39.5658 85.7205 38.9875 85.5103 38.5337C85.3 38.0799 85.0094 37.7424 84.6387 37.521C84.2679 37.2941 83.8418 37.1807 83.3604 37.1807C82.8789 37.1807 82.4473 37.2996 82.0654 37.5376C81.6891 37.77 81.3903 38.1159 81.1689 38.5752C80.9476 39.0345 80.8369 39.599 80.8369 40.2686V40.8413C80.8369 41.4777 80.9448 42.0228 81.1606 42.4766C81.3765 42.9248 81.6836 43.2707 82.082 43.5142C82.4805 43.7521 82.9508 43.8711 83.4932 43.8711C83.8971 43.8711 84.2485 43.8158 84.5474 43.7051C84.8462 43.5944 85.0924 43.4533 85.2861 43.2817C85.4798 43.1102 85.6154 42.9359 85.6929 42.7588L85.7261 42.6841H87.1704L87.1538 42.7505C87.0763 43.0549 86.938 43.3509 86.7388 43.6387C86.5451 43.9209 86.2933 44.1782 85.9834 44.4106C85.6735 44.6375 85.3055 44.8201 84.8794 44.9585C84.4588 45.0913 83.9857 45.1577 83.46 45.1577ZM89.5195 45V36.0518H90.9639V37.3799H91.0967C91.2682 36.9095 91.5588 36.5443 91.9683 36.2842C92.3778 36.0241 92.8841 35.894 93.4873 35.894C93.6257 35.894 93.7612 35.9023 93.894 35.9189C94.0324 35.93 94.1375 35.9411 94.2095 35.9521V37.355C94.0601 37.3273 93.9134 37.3079 93.7695 37.2969C93.6312 37.2803 93.4818 37.272 93.3213 37.272C92.862 37.272 92.4552 37.3633 92.1011 37.5459C91.7469 37.7285 91.4674 37.9831 91.2627 38.3096C91.0635 38.6361 90.9639 39.0179 90.9639 39.4551V45H89.5195ZM99.3975 45.1577C98.5452 45.1577 97.812 44.9696 97.1978 44.5933C96.589 44.217 96.1187 43.6857 95.7866 42.9995C95.4601 42.3078 95.2969 41.4943 95.2969 40.5591V40.5508C95.2969 39.6266 95.4601 38.8159 95.7866 38.1187C96.1187 37.4214 96.5863 36.8763 97.1895 36.4834C97.7926 36.0905 98.4982 35.894 99.3062 35.894C100.12 35.894 100.817 36.0822 101.398 36.4585C101.985 36.8348 102.433 37.3605 102.743 38.0356C103.058 38.7052 103.216 39.4855 103.216 40.3765V40.9409H96.0439V39.7871H102.477L101.763 40.8413V40.2686C101.763 39.5658 101.658 38.9875 101.448 38.5337C101.237 38.0799 100.947 37.7424 100.576 37.521C100.205 37.2941 99.7793 37.1807 99.2979 37.1807C98.8164 37.1807 98.3848 37.2996 98.0029 37.5376C97.6266 37.77 97.3278 38.1159 97.1064 38.5752C96.8851 39.0345 96.7744 39.599 96.7744 40.2686V40.8413C96.7744 41.4777 96.8823 42.0228 97.0981 42.4766C97.314 42.9248 97.6211 43.2707 98.0195 43.5142C98.418 43.7521 98.8883 43.8711 99.4307 43.8711C99.8346 43.8711 100.186 43.8158 100.485 43.7051C100.784 43.5944 101.03 43.4533 101.224 43.2817C101.417 43.1102 101.553 42.9359 101.63 42.7588L101.664 42.6841H103.108L103.091 42.7505C103.014 43.0549 102.875 43.3509 102.676 43.6387C102.483 43.9209 102.231 44.1782 101.921 44.4106C101.611 44.6375 101.243 44.8201 100.817 44.9585C100.396 45.0913 99.9232 45.1577 99.3975 45.1577ZM113.417 45.0664C112.499 45.0664 111.832 44.881 111.417 44.5103C111.007 44.1395 110.803 43.528 110.803 42.6758V37.2471H109.392V36.0518H110.803V33.7358H112.297V36.0518H114.256V37.2471H112.297V42.3105C112.297 42.8363 112.396 43.2153 112.596 43.4478C112.795 43.6746 113.127 43.7881 113.592 43.7881C113.719 43.7881 113.827 43.7853 113.916 43.7798C114.01 43.7743 114.123 43.766 114.256 43.7549V44.9834C114.118 45.0055 113.979 45.0249 113.841 45.0415C113.702 45.0581 113.561 45.0664 113.417 45.0664ZM119.975 45.1577C119.128 45.1577 118.395 44.9723 117.775 44.6016C117.161 44.2253 116.685 43.6912 116.348 42.9995C116.016 42.3078 115.85 41.486 115.85 40.5342V40.5176C115.85 39.5602 116.016 38.7357 116.348 38.0439C116.685 37.3522 117.161 36.821 117.775 36.4502C118.395 36.0794 119.128 35.894 119.975 35.894C120.827 35.894 121.561 36.0794 122.175 36.4502C122.789 36.821 123.262 37.3522 123.594 38.0439C123.932 38.7357 124.101 39.5602 124.101 40.5176V40.5342C124.101 41.486 123.932 42.3078 123.594 42.9995C123.262 43.6912 122.789 44.2253 122.175 44.6016C121.561 44.9723 120.827 45.1577 119.975 45.1577ZM119.975 43.8794C120.54 43.8794 121.018 43.7466 121.411 43.481C121.804 43.2153 122.103 42.8335 122.308 42.3354C122.518 41.8374 122.623 41.237 122.623 40.5342V40.5176C122.623 39.8092 122.518 39.2061 122.308 38.708C122.103 38.21 121.804 37.8309 121.411 37.5708C121.018 37.3052 120.54 37.1724 119.975 37.1724C119.411 37.1724 118.932 37.3052 118.539 37.5708C118.146 37.8309 117.845 38.21 117.634 38.708C117.43 39.2061 117.327 39.8092 117.327 40.5176V40.5342C117.327 41.237 117.43 41.8374 117.634 42.3354C117.845 42.8335 118.146 43.2153 118.539 43.481C118.932 43.7466 119.411 43.8794 119.975 43.8794ZM128.259 41.2979V40.5342C128.259 40.1689 128.317 39.8397 128.434 39.5464C128.55 39.2476 128.732 38.9736 128.981 38.7246C129.23 38.4756 129.543 38.2376 129.919 38.0107C130.24 37.8115 130.498 37.6178 130.691 37.4297C130.891 37.236 131.035 37.0257 131.123 36.7988C131.212 36.5719 131.256 36.3118 131.256 36.0186V36.002C131.256 35.6589 131.173 35.3545 131.007 35.0889C130.841 34.8232 130.606 34.613 130.301 34.458C129.997 34.3031 129.637 34.2256 129.222 34.2256C128.807 34.2256 128.445 34.3031 128.135 34.458C127.825 34.613 127.579 34.8343 127.396 35.1221C127.219 35.4098 127.117 35.7502 127.089 36.1431L127.072 36.1514L125.661 36.1597V36.1431C125.694 35.5509 125.849 35.0114 126.126 34.5244C126.403 34.0374 126.804 33.6501 127.33 33.3623C127.855 33.0745 128.506 32.9307 129.28 32.9307C129.978 32.9307 130.589 33.0635 131.115 33.3291C131.646 33.5892 132.058 33.9461 132.352 34.3999C132.65 34.8481 132.8 35.3573 132.8 35.9272V35.9438C132.8 36.3755 132.728 36.7684 132.584 37.1226C132.446 37.4712 132.246 37.7839 131.986 38.0605C131.726 38.3372 131.419 38.5835 131.065 38.7993C130.716 39.0041 130.442 39.2005 130.243 39.3887C130.049 39.5768 129.911 39.7788 129.828 39.9946C129.751 40.2104 129.712 40.465 129.712 40.7583V41.2979H128.259ZM129.098 45.1494C128.76 45.1494 128.483 45.0415 128.268 44.8257C128.052 44.6099 127.944 44.3332 127.944 43.9956C127.944 43.6525 128.052 43.373 128.268 43.1572C128.483 42.9414 128.76 42.8335 129.098 42.8335C129.435 42.8335 129.709 42.9414 129.919 43.1572C130.135 43.373 130.243 43.6525 130.243 43.9956C130.243 44.3332 130.135 44.6099 129.919 44.8257C129.709 45.0415 129.435 45.1494 129.098 45.1494Z" fill="white"/>
<rect x="20" y="76" width="280" height="38" rx="4" fill="#DCDCDC"/>
<g clip-path="url(#clip1_87_262)">
<path d="M29.1208 95.5478L35.2992 95.5733C35.4264 95.5733 35.4687 95.6157 35.4687 95.7431L35.4857 101.883C35.4857 103.149 37.0028 103.446 37.5706 102.215L43.8337 88.7196C44.4017 87.4797 43.4269 86.6559 42.2404 87.2164L28.697 93.5095C27.6122 94.0106 27.8241 95.5393 29.1208 95.5478Z" fill="#FF3B30"/>
</g>
<path d="M55.9014 101L52.7305 89.022H55.3369L57.2046 97.5801H57.3374L59.5205 89.022H61.6372L63.8618 97.5801H63.9946L65.8457 89.022H68.4355L65.2563 101H62.9072L60.6411 92.9316H60.5083L58.2671 101H55.9014ZM70.4609 101V88.3662H72.8848V93.272H73.0342C73.2445 92.7739 73.571 92.381 74.0137 92.0933C74.4564 91.8055 75.0042 91.6616 75.6572 91.6616C76.3379 91.6616 76.9079 91.7972 77.3672 92.0684C77.832 92.334 78.1834 92.7214 78.4214 93.2305C78.6649 93.7396 78.7866 94.3594 78.7866 95.0898V101H76.3628V95.6377C76.3628 94.9902 76.2272 94.5005 75.9561 94.1685C75.6849 93.8364 75.2616 93.6704 74.686 93.6704C74.3153 93.6704 73.9943 93.7562 73.7231 93.9277C73.4575 94.0938 73.25 94.3289 73.1006 94.6333C72.9567 94.9377 72.8848 95.2974 72.8848 95.7124V101H70.4609ZM85.1533 101.191C84.2292 101.191 83.4323 101 82.7627 100.618C82.0986 100.231 81.5868 99.6829 81.2271 98.9746C80.8674 98.2663 80.6875 97.4224 80.6875 96.4429V96.4346C80.6875 95.4661 80.8646 94.625 81.2188 93.9111C81.5785 93.1973 82.0848 92.6439 82.7378 92.251C83.3963 91.8581 84.1683 91.6616 85.0537 91.6616C85.9447 91.6616 86.7139 91.8525 87.3613 92.2344C88.0088 92.6162 88.5068 93.1502 88.8555 93.8364C89.2041 94.5226 89.3784 95.3278 89.3784 96.252V97.0073H81.8994V95.4883H88.2163L87.0791 96.9243V95.9531C87.0791 95.4053 86.9933 94.9487 86.8218 94.5835C86.6558 94.2183 86.4233 93.9443 86.1245 93.7617C85.8312 93.5736 85.4881 93.4795 85.0952 93.4795C84.7078 93.4795 84.362 93.5763 84.0576 93.77C83.7588 93.9582 83.5208 94.2376 83.3438 94.6084C83.1722 94.9736 83.0864 95.4219 83.0864 95.9531V96.9326C83.0864 97.4473 83.1722 97.8872 83.3438 98.2524C83.5153 98.6177 83.7588 98.8971 84.0742 99.0908C84.3896 99.2845 84.766 99.3813 85.2031 99.3813C85.5573 99.3813 85.8589 99.3288 86.1079 99.2236C86.3569 99.1185 86.5562 98.9967 86.7056 98.8584C86.8605 98.7145 86.9657 98.5845 87.021 98.4683L87.0459 98.4185H89.3037L89.2871 98.5015C89.2152 98.7892 89.0851 99.0908 88.897 99.4062C88.7088 99.7161 88.4487 100.007 88.1167 100.278C87.7902 100.549 87.3807 100.77 86.8882 100.942C86.4012 101.108 85.8229 101.191 85.1533 101.191ZM91.3623 101V91.8608H93.7861V93.2803H93.9355C94.085 92.7822 94.3589 92.3976 94.7573 92.1265C95.1558 91.8498 95.651 91.7114 96.2432 91.7114C96.4092 91.7114 96.5697 91.7225 96.7246 91.7446C96.8851 91.7668 97.0262 91.7944 97.1479 91.8276V93.9443C96.9653 93.9001 96.7799 93.8669 96.5918 93.8447C96.4092 93.8171 96.2238 93.8032 96.0356 93.8032C95.5763 93.8032 95.1779 93.889 94.8403 94.0605C94.5028 94.2266 94.2427 94.4645 94.0601 94.7744C93.8774 95.0843 93.7861 95.4551 93.7861 95.8867V101H91.3623ZM102.585 101.191C101.661 101.191 100.864 101 100.194 100.618C99.5303 100.231 99.0184 99.6829 98.6587 98.9746C98.299 98.2663 98.1191 97.4224 98.1191 96.4429V96.4346C98.1191 95.4661 98.2962 94.625 98.6504 93.9111C99.0101 93.1973 99.5164 92.6439 100.169 92.251C100.828 91.8581 101.6 91.6616 102.485 91.6616C103.376 91.6616 104.146 91.8525 104.793 92.2344C105.44 92.6162 105.938 93.1502 106.287 93.8364C106.636 94.5226 106.81 95.3278 106.81 96.252V97.0073H99.3311V95.4883H105.648L104.511 96.9243V95.9531C104.511 95.4053 104.425 94.9487 104.253 94.5835C104.087 94.2183 103.855 93.9443 103.556 93.7617C103.263 93.5736 102.92 93.4795 102.527 93.4795C102.139 93.4795 101.794 93.5763 101.489 93.77C101.19 93.9582 100.952 94.2376 100.775 94.6084C100.604 94.9736 100.518 95.4219 100.518 95.9531V96.9326C100.518 97.4473 100.604 97.8872 100.775 98.2524C100.947 98.6177 101.19 98.8971 101.506 99.0908C101.821 99.2845 102.198 99.3813 102.635 99.3813C102.989 99.3813 103.291 99.3288 103.54 99.2236C103.789 99.1185 103.988 98.9967 104.137 98.8584C104.292 98.7145 104.397 98.5845 104.453 98.4683L104.478 98.4185H106.735L106.719 98.5015C106.647 98.7892 106.517 99.0908 106.329 99.4062C106.14 99.7161 105.88 100.007 105.548 100.278C105.222 100.549 104.812 100.77 104.32 100.942C103.833 101.108 103.255 101.191 102.585 101.191ZM116.97 101.033C115.863 101.033 115.067 100.84 114.58 100.452C114.093 100.059 113.849 99.4201 113.849 98.5347V93.687H112.438V91.8608H113.849V89.6777H116.298V91.8608H118.182V93.687H116.298V97.9785C116.298 98.388 116.389 98.6896 116.572 98.8833C116.76 99.0715 117.059 99.1655 117.468 99.1655C117.623 99.1655 117.75 99.1628 117.85 99.1572C117.955 99.1462 118.066 99.1351 118.182 99.124V100.925C118.033 100.953 117.853 100.978 117.643 101C117.432 101.022 117.208 101.033 116.97 101.033ZM124.192 101.191C123.257 101.191 122.451 101.003 121.776 100.626C121.101 100.245 120.584 99.6995 120.224 98.9912C119.864 98.2773 119.685 97.4251 119.685 96.4346V96.418C119.685 95.4329 119.867 94.5863 120.232 93.8779C120.598 93.1696 121.115 92.6245 121.785 92.2427C122.46 91.8553 123.262 91.6616 124.192 91.6616C125.122 91.6616 125.921 91.8525 126.591 92.2344C127.266 92.6162 127.786 93.1641 128.151 93.8779C128.517 94.5863 128.699 95.4329 128.699 96.418V96.4346C128.699 97.4251 128.519 98.2773 128.16 98.9912C127.8 99.6995 127.283 100.245 126.607 100.626C125.938 101.003 125.133 101.191 124.192 101.191ZM124.192 99.29C124.624 99.29 124.989 99.1766 125.288 98.9497C125.586 98.7228 125.816 98.3963 125.977 97.9702C126.137 97.5441 126.217 97.0322 126.217 96.4346V96.418C126.217 95.8203 126.137 95.3112 125.977 94.8906C125.816 94.4645 125.584 94.138 125.279 93.9111C124.98 93.6787 124.618 93.5625 124.192 93.5625C123.766 93.5625 123.401 93.6787 123.096 93.9111C122.797 94.138 122.568 94.4645 122.407 94.8906C122.247 95.3112 122.167 95.8203 122.167 96.418V96.4346C122.167 97.0378 122.244 97.5524 122.399 97.9785C122.559 98.4046 122.789 98.7311 123.088 98.958C123.392 99.1794 123.76 99.29 124.192 99.29ZM132.7 97.2397L132.684 96.7583C132.65 96.3211 132.678 95.9421 132.767 95.6211C132.861 95.2946 133.024 95.0041 133.256 94.7495C133.494 94.495 133.801 94.257 134.178 94.0356C134.537 93.8198 134.817 93.6234 135.016 93.4463C135.221 93.2692 135.365 93.0838 135.448 92.8901C135.531 92.6965 135.572 92.4696 135.572 92.2095V92.1929C135.572 91.9328 135.506 91.7031 135.373 91.5039C135.246 91.2992 135.063 91.1387 134.825 91.0225C134.587 90.9007 134.311 90.8398 133.995 90.8398C133.68 90.8398 133.403 90.9035 133.165 91.0308C132.927 91.158 132.739 91.3379 132.601 91.5703C132.462 91.7972 132.385 92.0656 132.368 92.3755L132.352 92.3838L130.11 92.3921V92.3755C130.127 91.7004 130.293 91.1027 130.608 90.5825C130.929 90.0568 131.386 89.6473 131.978 89.354C132.576 89.0607 133.298 88.9141 134.145 88.9141C134.936 88.9141 135.625 89.0496 136.211 89.3208C136.804 89.592 137.263 89.9683 137.589 90.4497C137.921 90.9312 138.087 91.4873 138.087 92.1182V92.1348C138.087 92.5498 138.021 92.9261 137.888 93.2637C137.755 93.6012 137.556 93.9084 137.291 94.1851C137.03 94.4562 136.704 94.708 136.311 94.9404C135.946 95.1507 135.661 95.3472 135.456 95.5298C135.251 95.7069 135.107 95.895 135.024 96.0942C134.941 96.2935 134.9 96.5286 134.9 96.7998V97.2397H132.7ZM133.887 101.241C133.422 101.241 133.054 101.116 132.783 100.867C132.512 100.618 132.376 100.281 132.376 99.8545C132.376 99.4173 132.512 99.077 132.783 98.8335C133.054 98.5845 133.422 98.46 133.887 98.46C134.352 98.46 134.717 98.5845 134.983 98.8335C135.254 99.077 135.39 99.4173 135.39 99.8545C135.39 100.281 135.254 100.618 134.983 100.867C134.717 101.116 134.352 101.241 133.887 101.241Z" fill="#808080"/>
<rect x="0.5" y="0.5" width="319" height="131" rx="4.5" stroke="#9747FF" stroke-dasharray="10 5"/>
<defs>
<clipPath id="clip0_87_262">
<rect width="16" height="16" fill="white" transform="translate(28 31)"/>
</clipPath>
<clipPath id="clip1_87_262">
<rect width="16" height="16" fill="white" transform="translate(28 87)"/>
</clipPath>
</defs>
</svg>
