<svg width="328" height="100" viewBox="0 0 328 100" fill="none" xmlns="http://www.w3.org/2000/svg">
<rect x="32.1963" width="295.804" height="38" rx="4" fill="#007AFF"/>
<path d="M41.6738 25V13.022H43.8154V23.1987H49.3022V25H41.6738ZM54.8721 25.1826C53.9701 25.1826 53.1953 24.9917 52.5479 24.6099C51.9059 24.228 51.4106 23.6857 51.062 22.9829C50.7134 22.2801 50.5391 21.4473 50.5391 20.4844V20.4761C50.5391 19.5243 50.7106 18.6942 51.0537 17.9858C51.4023 17.2775 51.8949 16.7297 52.5312 16.3423C53.1676 15.9494 53.9147 15.7529 54.7725 15.7529C55.6357 15.7529 56.3773 15.9438 56.9971 16.3257C57.6224 16.702 58.1038 17.2305 58.4414 17.9111C58.779 18.5918 58.9478 19.3887 58.9478 20.3018V20.9824H51.5767V19.5962H57.9351L56.9556 20.8911V20.0693C56.9556 19.4661 56.8643 18.9653 56.6816 18.5669C56.499 18.1685 56.2445 17.8696 55.918 17.6704C55.597 17.4712 55.2235 17.3716 54.7974 17.3716C54.3713 17.3716 53.9922 17.4767 53.6602 17.687C53.3337 17.8918 53.0736 18.1961 52.8799 18.6001C52.6917 18.9985 52.5977 19.4883 52.5977 20.0693V20.8994C52.5977 21.4583 52.6917 21.937 52.8799 22.3354C53.068 22.7284 53.3337 23.0327 53.6768 23.2485C54.0254 23.4588 54.4377 23.564 54.9136 23.564C55.2843 23.564 55.6025 23.5114 55.8682 23.4062C56.1393 23.2956 56.3579 23.1655 56.5239 23.0161C56.6899 22.8612 56.8062 22.7145 56.8726 22.5762L56.8975 22.5181H58.8564L58.8398 22.5928C58.7679 22.8861 58.6351 23.1849 58.4414 23.4893C58.2533 23.7881 57.9959 24.0675 57.6694 24.3276C57.3485 24.5822 56.9556 24.7897 56.4907 24.9502C56.0259 25.1051 55.4863 25.1826 54.8721 25.1826ZM66.0615 25.1494C65.6354 25.1494 65.2453 25.0885 64.8911 24.9668C64.5369 24.8395 64.2243 24.6597 63.9531 24.4272C63.6875 24.1893 63.4717 23.9071 63.3057 23.5806H63.1646V25H61.0977V12.416H63.1646V17.3716H63.3057C63.4661 17.0451 63.682 16.7629 63.9531 16.5249C64.2243 16.2869 64.5397 16.1043 64.8994 15.9771C65.2591 15.8442 65.6465 15.7778 66.0615 15.7778C66.8252 15.7778 67.4837 15.9688 68.0371 16.3506C68.596 16.7269 69.0277 17.2664 69.332 17.9692C69.6364 18.6665 69.7886 19.4966 69.7886 20.4595V20.4761C69.7886 21.4279 69.6336 22.2552 69.3237 22.958C69.0194 23.6608 68.5877 24.2031 68.0288 24.585C67.4754 24.9613 66.8197 25.1494 66.0615 25.1494ZM65.4141 23.4062C65.8844 23.4062 66.2884 23.29 66.626 23.0576C66.9635 22.8197 67.2236 22.4821 67.4062 22.0449C67.5889 21.6077 67.6802 21.0848 67.6802 20.4761V20.4595C67.6802 19.8507 67.5889 19.3278 67.4062 18.8906C67.2236 18.4479 66.9635 18.1104 66.626 17.8779C66.2884 17.64 65.8844 17.521 65.4141 17.521C64.9492 17.521 64.5452 17.64 64.2021 17.8779C63.859 18.1159 63.5934 18.4535 63.4053 18.8906C63.2227 19.3278 63.1313 19.8507 63.1313 20.4595V20.4761C63.1313 21.0793 63.2227 21.6022 63.4053 22.0449C63.5934 22.4821 63.8563 22.8197 64.1938 23.0576C64.5369 23.29 64.9437 23.4062 65.4141 23.4062ZM74.3291 25.1494C73.7591 25.1494 73.2472 25.0387 72.7935 24.8174C72.3452 24.596 71.991 24.2834 71.731 23.8794C71.4764 23.4699 71.3491 22.9884 71.3491 22.4351V22.4185C71.3491 21.8817 71.4819 21.4196 71.7476 21.0322C72.0132 20.6393 72.4033 20.3322 72.918 20.1108C73.4326 19.8895 74.0579 19.7594 74.7939 19.7207L78.1475 19.5132V20.8745L75.0845 21.0737C74.5034 21.1069 74.0745 21.2287 73.7979 21.439C73.5212 21.6493 73.3828 21.9425 73.3828 22.3188V22.3354C73.3828 22.7228 73.5295 23.0244 73.8228 23.2402C74.1216 23.4561 74.5007 23.564 74.96 23.564C75.375 23.564 75.7458 23.481 76.0723 23.3149C76.3988 23.1489 76.6561 22.9248 76.8442 22.6426C77.0324 22.3548 77.1265 22.0311 77.1265 21.6714V18.7993C77.1265 18.3455 76.9826 17.9997 76.6948 17.7617C76.4071 17.5182 75.981 17.3965 75.4165 17.3965C74.9461 17.3965 74.5615 17.4795 74.2627 17.6455C73.9639 17.806 73.7619 18.0356 73.6567 18.3345L73.6484 18.3677H71.6978L71.7061 18.293C71.7725 17.7839 71.9717 17.3384 72.3037 16.9565C72.6357 16.5747 73.0757 16.2786 73.6235 16.0684C74.1714 15.8581 74.8022 15.7529 75.5161 15.7529C76.3019 15.7529 76.966 15.8747 77.5083 16.1182C78.0506 16.3561 78.4629 16.7048 78.7451 17.1641C79.0273 17.6178 79.1685 18.1629 79.1685 18.7993V25H77.1265V23.7549H76.9854C76.8193 24.0426 76.6035 24.2917 76.3379 24.502C76.0778 24.7122 75.779 24.8727 75.4414 24.9834C75.1038 25.0941 74.7331 25.1494 74.3291 25.1494ZM81.7334 25V12.416H83.8003V25H81.7334ZM87.436 25L84.3813 20.8828L85.917 19.6211L89.918 25H87.436ZM83.626 21.9951L83.5513 19.6543H83.9414L87.2866 15.9272H89.6772L85.7344 20.0693L84.7881 20.8081L83.626 21.9951ZM97.3306 25V23.3398H100.892C101.683 23.3398 102.283 23.1794 102.693 22.8584C103.102 22.5319 103.307 22.0643 103.307 21.4556V21.439C103.307 21.035 103.213 20.6947 103.025 20.418C102.837 20.1413 102.555 19.9338 102.178 19.7954C101.807 19.6571 101.348 19.5879 100.8 19.5879H97.3306V18.0688H100.468C101.226 18.0688 101.802 17.925 102.195 17.6372C102.593 17.3494 102.792 16.9344 102.792 16.3921V16.3755C102.792 15.8442 102.613 15.4292 102.253 15.1304C101.893 14.8315 101.39 14.6821 100.742 14.6821H97.3306V13.022H101.257C102.021 13.022 102.674 13.1437 103.216 13.3872C103.758 13.6252 104.176 13.9683 104.469 14.4165C104.763 14.8592 104.909 15.3877 104.909 16.002V16.0186C104.909 16.4391 104.812 16.832 104.619 17.1973C104.431 17.5625 104.176 17.8669 103.855 18.1104C103.54 18.3538 103.18 18.5088 102.776 18.5752V18.7246C103.313 18.7744 103.783 18.9294 104.187 19.1895C104.597 19.444 104.915 19.7788 105.142 20.1938C105.374 20.6089 105.49 21.0737 105.49 21.5884V21.605C105.49 22.3022 105.324 22.9054 104.992 23.4146C104.666 23.9237 104.195 24.3166 103.581 24.5933C102.967 24.8644 102.234 25 101.381 25H97.3306ZM96.2598 25V13.022H98.4014V25H96.2598ZM110.62 25.1826C109.945 25.1826 109.378 25.0526 108.918 24.7925C108.459 24.5269 108.113 24.1423 107.881 23.6387C107.648 23.1296 107.532 22.5153 107.532 21.7959V15.9272H109.599V21.3228C109.599 22.0256 109.737 22.554 110.014 22.9082C110.291 23.2624 110.742 23.4395 111.367 23.4395C111.699 23.4395 111.993 23.3896 112.247 23.29C112.507 23.1849 112.723 23.0355 112.895 22.8418C113.066 22.6481 113.196 22.4157 113.285 22.1445C113.373 21.8678 113.417 21.5579 113.417 21.2148V15.9272H115.484V25H113.417V23.6221H113.276C113.138 23.943 112.944 24.2225 112.695 24.4604C112.446 24.6929 112.147 24.8727 111.799 25C111.45 25.1217 111.057 25.1826 110.62 25.1826ZM118.091 25V12.416H120.158V25H118.091ZM125.761 25.1826C125.086 25.1826 124.518 25.0526 124.059 24.7925C123.6 24.5269 123.254 24.1423 123.021 23.6387C122.789 23.1296 122.673 22.5153 122.673 21.7959V15.9272H124.74V21.3228C124.74 22.0256 124.878 22.554 125.155 22.9082C125.431 23.2624 125.882 23.4395 126.508 23.4395C126.84 23.4395 127.133 23.3896 127.388 23.29C127.648 23.1849 127.864 23.0355 128.035 22.8418C128.207 22.6481 128.337 22.4157 128.425 22.1445C128.514 21.8678 128.558 21.5579 128.558 21.2148V15.9272H130.625V25H128.558V23.6221H128.417C128.279 23.943 128.085 24.2225 127.836 24.4604C127.587 24.6929 127.288 24.8727 126.939 25C126.591 25.1217 126.198 25.1826 125.761 25.1826ZM136.577 25.1826C135.807 25.1826 135.143 25.0747 134.584 24.8589C134.031 24.6375 133.594 24.3332 133.273 23.9458C132.952 23.5529 132.761 23.0991 132.7 22.5845V22.5679H134.75L134.759 22.5845C134.869 22.8999 135.077 23.1572 135.381 23.3564C135.686 23.5557 136.095 23.6553 136.61 23.6553C136.953 23.6553 137.255 23.6082 137.515 23.5142C137.775 23.4146 137.979 23.279 138.129 23.1074C138.278 22.9359 138.353 22.7367 138.353 22.5098V22.4932C138.353 22.2275 138.245 22.0062 138.029 21.8291C137.813 21.6465 137.457 21.4998 136.958 21.3892L135.489 21.0571C134.914 20.9299 134.438 20.7528 134.062 20.5259C133.685 20.299 133.403 20.0195 133.215 19.6875C133.032 19.3555 132.941 18.9681 132.941 18.5254V18.5171C132.941 17.9692 133.093 17.4878 133.397 17.0728C133.707 16.6577 134.136 16.334 134.684 16.1016C135.232 15.8691 135.863 15.7529 136.577 15.7529C137.313 15.7529 137.946 15.8636 138.478 16.085C139.009 16.3063 139.424 16.6107 139.723 16.998C140.021 17.3854 140.193 17.8254 140.237 18.3179V18.3345H138.295L138.287 18.3096C138.209 18.0218 138.024 17.7783 137.73 17.5791C137.443 17.3743 137.055 17.272 136.568 17.272C136.264 17.272 135.99 17.319 135.747 17.4131C135.509 17.5072 135.32 17.64 135.182 17.8115C135.049 17.9775 134.983 18.174 134.983 18.4009V18.4092C134.983 18.5863 135.027 18.7412 135.116 18.874C135.21 19.0068 135.356 19.123 135.556 19.2227C135.755 19.3223 136.018 19.4108 136.344 19.4883L137.813 19.812C138.704 20.0112 139.363 20.3073 139.789 20.7002C140.215 21.0931 140.428 21.6216 140.428 22.2856V22.3022C140.428 22.8778 140.262 23.3813 139.93 23.813C139.598 24.2446 139.142 24.5822 138.561 24.8257C137.979 25.0636 137.318 25.1826 136.577 25.1826ZM152.381 25.2988C151.513 25.2988 150.732 25.1549 150.041 24.8672C149.349 24.5739 148.757 24.1533 148.264 23.6055C147.777 23.0576 147.404 22.3991 147.144 21.6299C146.883 20.8551 146.753 19.9836 146.753 19.0151V18.9985C146.753 17.7202 146.983 16.6134 147.442 15.6782C147.902 14.7375 148.549 14.0098 149.385 13.4951C150.226 12.9805 151.214 12.7231 152.348 12.7231C153.272 12.7231 154.097 12.8892 154.822 13.2212C155.552 13.5477 156.15 14.007 156.615 14.5991C157.08 15.1857 157.376 15.8691 157.503 16.6494L157.52 16.7324H155.395L155.37 16.6494C155.176 15.9909 154.816 15.4818 154.291 15.1221C153.765 14.7568 153.117 14.5742 152.348 14.5742C151.651 14.5742 151.045 14.7541 150.53 15.1138C150.021 15.4735 149.628 15.9826 149.352 16.6411C149.075 17.2996 148.937 18.0799 148.937 18.9819V18.9985C148.937 19.6847 149.017 20.3018 149.177 20.8496C149.338 21.3975 149.567 21.8651 149.866 22.2524C150.171 22.6398 150.536 22.9359 150.962 23.1406C151.394 23.3454 151.878 23.4478 152.415 23.4478C153.023 23.4478 153.557 23.3288 154.017 23.0908C154.481 22.8529 154.844 22.5208 155.104 22.0947C155.37 21.6686 155.508 21.1733 155.519 20.6089V20.3599H152.647V18.7246H157.611V20.2188C157.611 20.9935 157.489 21.6935 157.246 22.3188C157.002 22.9442 156.651 23.4782 156.191 23.9209C155.738 24.3636 155.187 24.7039 154.54 24.9419C153.898 25.1799 153.178 25.2988 152.381 25.2988ZM159.894 25V15.9272H161.96V17.3218H162.102C162.257 16.8348 162.533 16.4557 162.932 16.1846C163.336 15.9134 163.836 15.7778 164.434 15.7778C164.589 15.7778 164.741 15.7889 164.891 15.811C165.046 15.8276 165.173 15.8498 165.272 15.8774V17.7285C165.106 17.6898 164.938 17.6621 164.766 17.6455C164.6 17.6234 164.426 17.6123 164.243 17.6123C163.784 17.6123 163.383 17.6981 163.04 17.8696C162.696 18.0412 162.431 18.2874 162.243 18.6084C162.055 18.9238 161.96 19.2974 161.96 19.729V25H159.894ZM169.323 25.1494C168.753 25.1494 168.241 25.0387 167.788 24.8174C167.339 24.596 166.985 24.2834 166.725 23.8794C166.471 23.4699 166.343 22.9884 166.343 22.4351V22.4185C166.343 21.8817 166.476 21.4196 166.742 21.0322C167.007 20.6393 167.397 20.3322 167.912 20.1108C168.427 19.8895 169.052 19.7594 169.788 19.7207L173.142 19.5132V20.8745L170.079 21.0737C169.498 21.1069 169.069 21.2287 168.792 21.439C168.515 21.6493 168.377 21.9425 168.377 22.3188V22.3354C168.377 22.7228 168.524 23.0244 168.817 23.2402C169.116 23.4561 169.495 23.564 169.954 23.564C170.369 23.564 170.74 23.481 171.066 23.3149C171.393 23.1489 171.65 22.9248 171.838 22.6426C172.027 22.3548 172.121 22.0311 172.121 21.6714V18.7993C172.121 18.3455 171.977 17.9997 171.689 17.7617C171.401 17.5182 170.975 17.3965 170.411 17.3965C169.94 17.3965 169.556 17.4795 169.257 17.6455C168.958 17.806 168.756 18.0356 168.651 18.3345L168.643 18.3677H166.692L166.7 18.293C166.767 17.7839 166.966 17.3384 167.298 16.9565C167.63 16.5747 168.07 16.2786 168.618 16.0684C169.166 15.8581 169.796 15.7529 170.51 15.7529C171.296 15.7529 171.96 15.8747 172.502 16.1182C173.045 16.3561 173.457 16.7048 173.739 17.1641C174.021 17.6178 174.163 18.1629 174.163 18.7993V25H172.121V23.7549H171.979C171.813 24.0426 171.598 24.2917 171.332 24.502C171.072 24.7122 170.773 24.8727 170.436 24.9834C170.098 25.0941 169.727 25.1494 169.323 25.1494ZM181.691 25.1494C181.265 25.1494 180.875 25.0885 180.521 24.9668C180.167 24.8395 179.854 24.6597 179.583 24.4272C179.317 24.1893 179.102 23.9071 178.936 23.5806H178.794V25H176.728V12.416H178.794V17.3716H178.936C179.096 17.0451 179.312 16.7629 179.583 16.5249C179.854 16.2869 180.17 16.1043 180.529 15.9771C180.889 15.8442 181.276 15.7778 181.691 15.7778C182.455 15.7778 183.114 15.9688 183.667 16.3506C184.226 16.7269 184.658 17.2664 184.962 17.9692C185.266 18.6665 185.418 19.4966 185.418 20.4595V20.4761C185.418 21.4279 185.264 22.2552 184.954 22.958C184.649 23.6608 184.218 24.2031 183.659 24.585C183.105 24.9613 182.45 25.1494 181.691 25.1494ZM181.044 23.4062C181.514 23.4062 181.918 23.29 182.256 23.0576C182.593 22.8197 182.854 22.4821 183.036 22.0449C183.219 21.6077 183.31 21.0848 183.31 20.4761V20.4595C183.31 19.8507 183.219 19.3278 183.036 18.8906C182.854 18.4479 182.593 18.1104 182.256 17.8779C181.918 17.64 181.514 17.521 181.044 17.521C180.579 17.521 180.175 17.64 179.832 17.8779C179.489 18.1159 179.223 18.4535 179.035 18.8906C178.853 19.3278 178.761 19.8507 178.761 20.4595V20.4761C178.761 21.0793 178.853 21.6022 179.035 22.0449C179.223 22.4821 179.486 22.8197 179.824 23.0576C180.167 23.29 180.574 23.4062 181.044 23.4062ZM196.392 25.2988C195.462 25.2988 194.654 25.1549 193.968 24.8672C193.288 24.5794 192.751 24.1782 192.358 23.6636C191.965 23.1489 191.744 22.5485 191.694 21.8623L191.686 21.7461H193.761L193.769 21.8291C193.802 22.1667 193.935 22.46 194.167 22.709C194.405 22.958 194.721 23.1545 195.114 23.2983C195.507 23.4367 195.955 23.5059 196.458 23.5059C196.94 23.5059 197.366 23.4312 197.737 23.2817C198.108 23.1323 198.398 22.9276 198.608 22.6675C198.819 22.4019 198.924 22.0975 198.924 21.7544V21.7461C198.924 21.3145 198.755 20.9631 198.417 20.6919C198.08 20.4152 197.524 20.1938 196.749 20.0278L195.462 19.7622C194.234 19.5021 193.34 19.0871 192.781 18.5171C192.228 17.9416 191.951 17.2083 191.951 16.3174V16.3091C191.951 15.5952 192.139 14.9699 192.516 14.4331C192.897 13.8963 193.42 13.4785 194.084 13.1797C194.754 12.8753 195.521 12.7231 196.384 12.7231C197.269 12.7231 198.036 12.8726 198.683 13.1714C199.331 13.4647 199.84 13.8659 200.21 14.375C200.581 14.8841 200.789 15.4596 200.833 16.1016L200.841 16.2095H198.799L198.783 16.1099C198.733 15.7944 198.603 15.5205 198.393 15.2881C198.188 15.0501 197.914 14.862 197.571 14.7236C197.228 14.5853 196.826 14.5161 196.367 14.5161C195.93 14.5161 195.54 14.5853 195.197 14.7236C194.854 14.8564 194.583 15.0446 194.383 15.2881C194.19 15.5316 194.093 15.8249 194.093 16.168V16.1763C194.093 16.5968 194.256 16.9455 194.583 17.2222C194.915 17.4989 195.454 17.7147 196.201 17.8696L197.488 18.1436C198.329 18.3206 199.012 18.5558 199.538 18.8491C200.064 19.1424 200.448 19.5076 200.692 19.9448C200.941 20.3765 201.065 20.8966 201.065 21.5054V21.5137C201.065 22.2884 200.875 22.958 200.493 23.5225C200.116 24.0869 199.577 24.5241 198.874 24.834C198.177 25.1439 197.349 25.2988 196.392 25.2988ZM206.826 25.0415C205.786 25.0415 205.036 24.8506 204.577 24.4688C204.117 24.0869 203.888 23.4616 203.888 22.5928V17.5293H202.477V15.9272H203.888V13.7026H205.988V15.9272H207.897V17.5293H205.988V22.103C205.988 22.5513 206.082 22.8805 206.27 23.0908C206.464 23.2956 206.774 23.3979 207.2 23.3979C207.349 23.3979 207.471 23.3952 207.565 23.3896C207.665 23.3786 207.775 23.3675 207.897 23.3564V24.9502C207.753 24.9779 207.587 25 207.399 25.0166C207.216 25.0332 207.025 25.0415 206.826 25.0415ZM212.438 25.1494C211.868 25.1494 211.356 25.0387 210.902 24.8174C210.454 24.596 210.099 24.2834 209.839 23.8794C209.585 23.4699 209.458 22.9884 209.458 22.4351V22.4185C209.458 21.8817 209.59 21.4196 209.856 21.0322C210.122 20.6393 210.512 20.3322 211.026 20.1108C211.541 19.8895 212.166 19.7594 212.902 19.7207L216.256 19.5132V20.8745L213.193 21.0737C212.612 21.1069 212.183 21.2287 211.906 21.439C211.63 21.6493 211.491 21.9425 211.491 22.3188V22.3354C211.491 22.7228 211.638 23.0244 211.931 23.2402C212.23 23.4561 212.609 23.564 213.068 23.564C213.483 23.564 213.854 23.481 214.181 23.3149C214.507 23.1489 214.764 22.9248 214.953 22.6426C215.141 22.3548 215.235 22.0311 215.235 21.6714V18.7993C215.235 18.3455 215.091 17.9997 214.803 17.7617C214.515 17.5182 214.089 17.3965 213.525 17.3965C213.055 17.3965 212.67 17.4795 212.371 17.6455C212.072 17.806 211.87 18.0356 211.765 18.3345L211.757 18.3677H209.806L209.814 18.293C209.881 17.7839 210.08 17.3384 210.412 16.9565C210.744 16.5747 211.184 16.2786 211.732 16.0684C212.28 15.8581 212.911 15.7529 213.625 15.7529C214.41 15.7529 215.074 15.8747 215.617 16.1182C216.159 16.3561 216.571 16.7048 216.854 17.1641C217.136 17.6178 217.277 18.1629 217.277 18.7993V25H215.235V23.7549H215.094C214.928 24.0426 214.712 24.2917 214.446 24.502C214.186 24.7122 213.887 24.8727 213.55 24.9834C213.212 25.0941 212.841 25.1494 212.438 25.1494ZM223.328 25.0415C222.288 25.0415 221.538 24.8506 221.079 24.4688C220.619 24.0869 220.39 23.4616 220.39 22.5928V17.5293H218.979V15.9272H220.39V13.7026H222.49V15.9272H224.399V17.5293H222.49V22.103C222.49 22.5513 222.584 22.8805 222.772 23.0908C222.966 23.2956 223.276 23.3979 223.702 23.3979C223.851 23.3979 223.973 23.3952 224.067 23.3896C224.167 23.3786 224.277 23.3675 224.399 23.3564V24.9502C224.255 24.9779 224.089 25 223.901 25.0166C223.718 25.0332 223.527 25.0415 223.328 25.0415ZM226.491 25V15.9272H228.549V25H226.491ZM227.528 14.4082C227.191 14.4082 226.9 14.2892 226.657 14.0513C226.413 13.8133 226.292 13.5283 226.292 13.1963C226.292 12.8532 226.413 12.5654 226.657 12.333C226.9 12.0951 227.191 11.9761 227.528 11.9761C227.866 11.9761 228.154 12.0951 228.392 12.333C228.635 12.5654 228.757 12.8532 228.757 13.1963C228.757 13.5283 228.635 13.8133 228.392 14.0513C228.154 14.2892 227.866 14.4082 227.528 14.4082ZM235.016 25.1826C234.114 25.1826 233.336 24.9945 232.683 24.6182C232.03 24.2363 231.527 23.694 231.172 22.9912C230.824 22.2884 230.649 21.4473 230.649 20.4678V20.4512C230.649 19.4827 230.826 18.6471 231.181 17.9443C231.535 17.236 232.036 16.6937 232.683 16.3174C233.336 15.9411 234.114 15.7529 235.016 15.7529C235.918 15.7529 236.692 15.9411 237.34 16.3174C237.993 16.6937 238.496 17.2332 238.851 17.936C239.205 18.6388 239.382 19.4772 239.382 20.4512V20.4678C239.382 21.4473 239.205 22.2884 238.851 22.9912C238.502 23.694 238.001 24.2363 237.348 24.6182C236.701 24.9945 235.923 25.1826 235.016 25.1826ZM235.016 23.5059C235.492 23.5059 235.896 23.3869 236.228 23.1489C236.565 22.9054 236.822 22.5596 237 22.1113C237.177 21.6576 237.265 21.1125 237.265 20.4761V20.4595C237.265 19.8175 237.177 19.2725 237 18.8242C236.822 18.3704 236.565 18.0246 236.228 17.7866C235.896 17.5431 235.492 17.4214 235.016 17.4214C234.54 17.4214 234.133 17.5431 233.795 17.7866C233.458 18.0246 233.201 18.3704 233.023 18.8242C232.846 19.2725 232.758 19.8175 232.758 20.4595V20.4761C232.758 21.1125 232.846 21.6576 233.023 22.1113C233.201 22.5651 233.455 22.911 233.787 23.1489C234.125 23.3869 234.534 23.5059 235.016 23.5059ZM241.457 25V15.9272H243.524V17.3218H243.665C243.881 16.8293 244.207 16.4447 244.645 16.168C245.082 15.8913 245.627 15.7529 246.28 15.7529C247.292 15.7529 248.067 16.0462 248.604 16.6328C249.141 17.2194 249.409 18.0522 249.409 19.1313V25H247.342V19.6128C247.342 18.9045 247.193 18.3732 246.894 18.019C246.601 17.6649 246.141 17.4878 245.516 17.4878C245.107 17.4878 244.752 17.5791 244.454 17.7617C244.155 17.9443 243.925 18.2017 243.765 18.5337C243.604 18.8657 243.524 19.2586 243.524 19.7124V25H241.457Z" fill="white"/>
<path d="M14.0982 19C14.0982 22.3022 11.4014 25 8.04908 25C4.69671 25 2 22.3022 2 19C2 15.6978 4.69671 13 8.04908 13C11.4014 13 14.0982 15.6978 14.0982 19Z" stroke="#007AFF" stroke-width="4"/>
<path d="M44.1392 87L40.9268 75.022H43.1514L45.21 84.0117H45.3262L47.6919 75.022H49.5928L51.9834 84.0117H52.0996L54.1499 75.022H56.3579L53.1538 87H51.145L48.7046 78.4253H48.5801L46.1562 87H44.1392ZM58.4414 87V74.416H60.5083V79.3218H60.6494C60.8652 78.8293 61.1917 78.4447 61.6289 78.168C62.0661 77.8913 62.6112 77.7529 63.2642 77.7529C63.9393 77.7529 64.5093 77.8857 64.9741 78.1514C65.439 78.4115 65.7904 78.7933 66.0283 79.2969C66.2718 79.8005 66.3936 80.4119 66.3936 81.1313V87H64.3267V81.6128C64.3267 80.9045 64.1772 80.3732 63.8784 80.019C63.5851 79.6649 63.1258 79.4878 62.5005 79.4878C62.091 79.4878 61.7368 79.5791 61.438 79.7617C61.1392 79.9443 60.9095 80.2017 60.749 80.5337C60.5885 80.8657 60.5083 81.2586 60.5083 81.7124V87H58.4414ZM72.7188 87.1826C71.8167 87.1826 71.042 86.9917 70.3945 86.6099C69.7526 86.228 69.2573 85.6857 68.9087 84.9829C68.5601 84.2801 68.3857 83.4473 68.3857 82.4844V82.4761C68.3857 81.5243 68.5573 80.6942 68.9004 79.9858C69.249 79.2775 69.7415 78.7297 70.3779 78.3423C71.0143 77.9494 71.7614 77.7529 72.6191 77.7529C73.4824 77.7529 74.224 77.9438 74.8438 78.3257C75.4691 78.702 75.9505 79.2305 76.2881 79.9111C76.6257 80.5918 76.7944 81.3887 76.7944 82.3018V82.9824H69.4233V81.5962H75.7817L74.8022 82.8911V82.0693C74.8022 81.4661 74.7109 80.9653 74.5283 80.5669C74.3457 80.1685 74.0911 79.8696 73.7646 79.6704C73.4437 79.4712 73.0701 79.3716 72.644 79.3716C72.2179 79.3716 71.8389 79.4767 71.5068 79.687C71.1803 79.8918 70.9202 80.1961 70.7266 80.6001C70.5384 80.9985 70.4443 81.4883 70.4443 82.0693V82.8994C70.4443 83.4583 70.5384 83.937 70.7266 84.3354C70.9147 84.7284 71.1803 85.0327 71.5234 85.2485C71.8721 85.4588 72.2843 85.564 72.7603 85.564C73.131 85.564 73.4492 85.5114 73.7148 85.4062C73.986 85.2956 74.2046 85.1655 74.3706 85.0161C74.5366 84.8612 74.6528 84.7145 74.7192 84.5762L74.7441 84.5181H76.7031L76.6865 84.5928C76.6146 84.8861 76.4818 85.1849 76.2881 85.4893C76.0999 85.7881 75.8426 86.0675 75.5161 86.3276C75.1951 86.5822 74.8022 86.7897 74.3374 86.9502C73.8726 87.1051 73.333 87.1826 72.7188 87.1826ZM78.8613 87V77.9272H80.9282V79.3218H81.0693C81.2243 78.8348 81.501 78.4557 81.8994 78.1846C82.3034 77.9134 82.8042 77.7778 83.4019 77.7778C83.5568 77.7778 83.709 77.7889 83.8584 77.811C84.0133 77.8276 84.1406 77.8498 84.2402 77.8774V79.7285C84.0742 79.6898 83.9054 79.6621 83.7339 79.6455C83.5679 79.6234 83.3936 79.6123 83.2109 79.6123C82.7516 79.6123 82.3504 79.6981 82.0073 79.8696C81.6642 80.0412 81.3986 80.2874 81.2104 80.6084C81.0223 80.9238 80.9282 81.2974 80.9282 81.729V87H78.8613ZM89.5859 87.1826C88.6839 87.1826 87.9092 86.9917 87.2617 86.6099C86.6198 86.228 86.1245 85.6857 85.7759 84.9829C85.4272 84.2801 85.2529 83.4473 85.2529 82.4844V82.4761C85.2529 81.5243 85.4245 80.6942 85.7676 79.9858C86.1162 79.2775 86.6087 78.7297 87.2451 78.3423C87.8815 77.9494 88.6286 77.7529 89.4863 77.7529C90.3496 77.7529 91.0911 77.9438 91.7109 78.3257C92.3363 78.702 92.8177 79.2305 93.1553 79.9111C93.4928 80.5918 93.6616 81.3887 93.6616 82.3018V82.9824H86.2905V81.5962H92.6489L91.6694 82.8911V82.0693C91.6694 81.4661 91.5781 80.9653 91.3955 80.5669C91.2129 80.1685 90.9583 79.8696 90.6318 79.6704C90.3109 79.4712 89.9373 79.3716 89.5112 79.3716C89.0851 79.3716 88.7061 79.4767 88.374 79.687C88.0475 79.8918 87.7874 80.1961 87.5938 80.6001C87.4056 80.9985 87.3115 81.4883 87.3115 82.0693V82.8994C87.3115 83.4583 87.4056 83.937 87.5938 84.3354C87.7819 84.7284 88.0475 85.0327 88.3906 85.2485C88.7393 85.4588 89.1515 85.564 89.6274 85.564C89.9982 85.564 90.3164 85.5114 90.582 85.4062C90.8532 85.2956 91.0718 85.1655 91.2378 85.0161C91.4038 84.8612 91.52 84.7145 91.5864 84.5762L91.6113 84.5181H93.5703L93.5537 84.5928C93.4818 84.8861 93.349 85.1849 93.1553 85.4893C92.9671 85.7881 92.7098 86.0675 92.3833 86.3276C92.0623 86.5822 91.6694 86.7897 91.2046 86.9502C90.7397 87.1051 90.2002 87.1826 89.5859 87.1826ZM103.83 87.0415C102.79 87.0415 102.04 86.8506 101.581 86.4688C101.121 86.0869 100.892 85.4616 100.892 84.5928V79.5293H99.4805V77.9272H100.892V75.7026H102.992V77.9272H104.901V79.5293H102.992V84.103C102.992 84.5513 103.086 84.8805 103.274 85.0908C103.468 85.2956 103.778 85.3979 104.204 85.3979C104.353 85.3979 104.475 85.3952 104.569 85.3896C104.668 85.3786 104.779 85.3675 104.901 85.3564V86.9502C104.757 86.9779 104.591 87 104.403 87.0166C104.22 87.0332 104.029 87.0415 103.83 87.0415ZM110.803 87.1826C109.901 87.1826 109.123 86.9945 108.47 86.6182C107.817 86.2363 107.314 85.694 106.959 84.9912C106.611 84.2884 106.437 83.4473 106.437 82.4678V82.4512C106.437 81.4827 106.614 80.6471 106.968 79.9443C107.322 79.236 107.823 78.6937 108.47 78.3174C109.123 77.9411 109.901 77.7529 110.803 77.7529C111.705 77.7529 112.479 77.9411 113.127 78.3174C113.78 78.6937 114.284 79.2332 114.638 79.936C114.992 80.6388 115.169 81.4772 115.169 82.4512V82.4678C115.169 83.4473 114.992 84.2884 114.638 84.9912C114.289 85.694 113.788 86.2363 113.135 86.6182C112.488 86.9945 111.71 87.1826 110.803 87.1826ZM110.803 85.5059C111.279 85.5059 111.683 85.3869 112.015 85.1489C112.352 84.9054 112.61 84.5596 112.787 84.1113C112.964 83.6576 113.052 83.1125 113.052 82.4761V82.4595C113.052 81.8175 112.964 81.2725 112.787 80.8242C112.61 80.3704 112.352 80.0246 112.015 79.7866C111.683 79.5431 111.279 79.4214 110.803 79.4214C110.327 79.4214 109.92 79.5431 109.583 79.7866C109.245 80.0246 108.988 80.3704 108.811 80.8242C108.633 81.2725 108.545 81.8175 108.545 82.4595V82.4761C108.545 83.1125 108.633 83.6576 108.811 84.1113C108.988 84.5651 109.242 84.911 109.574 85.1489C109.912 85.3869 110.321 85.5059 110.803 85.5059ZM119.228 83.2646L119.22 82.6753C119.198 82.2658 119.236 81.9061 119.336 81.5962C119.436 81.2808 119.604 80.9985 119.842 80.7495C120.086 80.495 120.396 80.2542 120.772 80.0273C121.115 79.8171 121.386 79.6206 121.585 79.438C121.79 79.2554 121.934 79.0617 122.017 78.8569C122.106 78.6522 122.15 78.4142 122.15 78.1431V78.1265C122.15 77.8332 122.078 77.5758 121.934 77.3545C121.79 77.1276 121.585 76.9478 121.32 76.8149C121.06 76.6821 120.753 76.6157 120.398 76.6157C120.05 76.6157 119.743 76.6849 119.477 76.8232C119.211 76.9616 119.001 77.158 118.846 77.4126C118.691 77.6616 118.605 77.9549 118.589 78.2925L118.572 78.3008L116.63 78.3091V78.2925C116.658 77.645 116.821 77.0667 117.12 76.5576C117.424 76.0485 117.861 75.6501 118.431 75.3623C119.001 75.069 119.696 74.9224 120.515 74.9224C121.273 74.9224 121.934 75.0579 122.499 75.3291C123.069 75.5947 123.511 75.9627 123.827 76.4331C124.142 76.9035 124.3 77.443 124.3 78.0518V78.0684C124.3 78.4889 124.231 78.8708 124.092 79.2139C123.959 79.557 123.763 79.8669 123.503 80.1436C123.243 80.4147 122.925 80.6637 122.548 80.8906C122.183 81.1009 121.898 81.2974 121.693 81.48C121.494 81.6626 121.353 81.8563 121.27 82.061C121.193 82.2658 121.154 82.5065 121.154 82.7832V83.2646H119.228ZM120.282 87.2075C119.867 87.2075 119.532 87.0913 119.278 86.8589C119.029 86.6209 118.904 86.3027 118.904 85.9043C118.904 85.5059 119.029 85.1904 119.278 84.958C119.532 84.7201 119.867 84.6011 120.282 84.6011C120.703 84.6011 121.038 84.7201 121.287 84.958C121.536 85.1904 121.66 85.5059 121.66 85.9043C121.66 86.3027 121.536 86.6209 121.287 86.8589C121.038 87.0913 120.703 87.2075 120.282 87.2075Z" fill="#007AFF"/>
<rect x="33.1963" y="63" width="293.804" height="36" rx="3" stroke="#007AFF" stroke-width="2"/>
<path d="M14.0982 81C14.0982 84.3022 11.4014 87 8.04908 87C4.69671 87 2 84.3022 2 81C2 77.6978 4.69671 75 8.04908 75C11.4014 75 14.0982 77.6978 14.0982 81Z" stroke="#007AFF" stroke-width="4"/>
<line x1="8.5" y1="38" x2="8.5" y2="46" stroke="#007AFF"/>
<line x1="8.5" y1="54" x2="8.5" y2="62" stroke="#007AFF"/>
</svg>
