<svg width="25" height="25" viewBox="0 0 25 25" fill="none" xmlns="http://www.w3.org/2000/svg">
<path d="M24.2188 12.1094C24.2188 18.7988 18.7988 24.2188 12.1094 24.2188C5.41992 24.2188 0 18.7988 0 12.1094C0 5.41992 5.41992 0 12.1094 0C18.7988 0 24.2188 5.41992 24.2188 12.1094ZM12.9395 17.6709L19.5557 11.0547C20.0146 10.5957 20.0146 9.85352 19.5557 9.39941L18.7256 8.56934C18.2666 8.11035 17.5244 8.11035 17.0703 8.56934L12.1094 13.5303L7.14844 8.56934C6.68945 8.11035 5.94727 8.11035 5.49316 8.56934L4.66309 9.39941C4.2041 9.8584 4.2041 10.6006 4.66309 11.0547L11.2793 17.6709C11.7383 18.1299 12.4805 18.1299 12.9395 17.6709Z" fill="#315BEC"/>
</svg>
