<svg width="40" height="40" viewBox="0 0 40 40" fill="none" xmlns="http://www.w3.org/2000/svg">
<rect width="40" height="40" rx="8" fill="#E0E3E7"/>
<path d="M30.0001 30.8333C29.8907 30.8335 29.7823 30.812 29.6812 30.7701C29.5801 30.7282 29.4883 30.6667 29.4111 30.5891L9.41107 10.5891C9.26139 10.4315 9.17917 10.2217 9.18195 10.0044C9.18474 9.78713 9.27229 9.57951 9.42596 9.42584C9.57963 9.27217 9.78725 9.18461 10.0045 9.18183C10.2219 9.17905 10.4316 9.26126 10.5892 9.41095L30.5892 29.4109C30.7057 29.5275 30.785 29.6759 30.8171 29.8375C30.8492 29.9991 30.8327 30.1666 30.7697 30.3189C30.7066 30.4711 30.5999 30.6012 30.4629 30.6928C30.3259 30.7844 30.1649 30.8333 30.0001 30.8333Z" fill="#979797"/>
<path d="M29.5876 24.4431C29.5011 24.339 29.4162 24.2348 29.3329 24.1343C28.187 22.7484 27.4938 21.9119 27.4938 17.9885C27.4938 15.9572 27.0079 14.2905 26.05 13.0405C25.3438 12.1171 24.3891 11.4166 23.1308 10.8989C23.1146 10.8899 23.1001 10.8781 23.0881 10.864C22.6355 9.34836 21.3969 8.33325 20 8.33325C18.6032 8.33325 17.3652 9.34836 16.9125 10.8624C16.9005 10.876 16.8862 10.8874 16.8704 10.8963C16.4762 11.0575 16.0952 11.249 15.7308 11.4692C15.6769 11.502 15.6312 11.5467 15.5971 11.5997C15.563 11.6528 15.5414 11.713 15.5339 11.7756C15.5265 11.8382 15.5333 11.9018 15.554 11.9614C15.5746 12.021 15.6085 12.0751 15.6532 12.1197L29.2876 25.752C29.3489 25.8134 29.4278 25.8541 29.5134 25.8685C29.599 25.8828 29.6869 25.8701 29.7649 25.8321C29.8429 25.794 29.9071 25.7326 29.9485 25.6564C29.9899 25.5801 30.0065 25.4928 29.9959 25.4067C29.9557 25.0528 29.8139 24.7181 29.5876 24.4431Z" fill="#979797"/>
<path d="M12.5073 17.987C12.5073 21.912 11.8151 22.7484 10.6682 24.1328C10.5849 24.2333 10.5 24.3354 10.4135 24.4417C10.1902 24.711 10.0487 25.0387 10.0058 25.3859C9.96285 25.7332 10.0203 26.0854 10.1713 26.401C10.4927 27.0781 11.1776 27.4984 11.9594 27.4984H22.9583C23.0408 27.4985 23.1214 27.4741 23.19 27.4283C23.2586 27.3825 23.312 27.3174 23.3436 27.2413C23.3751 27.1651 23.3834 27.0813 23.3673 27.0004C23.3512 26.9195 23.3114 26.8452 23.2531 26.787L13.2531 16.787C13.1969 16.7309 13.1258 16.6921 13.0483 16.6751C12.9707 16.6581 12.8899 16.6636 12.8154 16.6909C12.7408 16.7183 12.6757 16.7664 12.6275 16.8295C12.5794 16.8927 12.5503 16.9683 12.5437 17.0474C12.5194 17.3491 12.5073 17.6623 12.5073 17.987Z" fill="#979797"/>
<path d="M20 31.6666C20.7526 31.666 21.4911 31.4617 22.137 31.0754C22.7829 30.6891 23.3122 30.1352 23.6688 29.4724C23.6856 29.4406 23.6939 29.405 23.6929 29.3691C23.6918 29.3332 23.6816 29.2981 23.663 29.2674C23.6444 29.2366 23.6182 29.2112 23.5869 29.1935C23.5557 29.1758 23.5203 29.1666 23.4844 29.1666H16.5167C16.4807 29.1665 16.4453 29.1757 16.4139 29.1933C16.3826 29.2109 16.3563 29.2364 16.3377 29.2671C16.3191 29.2979 16.3087 29.333 16.3077 29.369C16.3067 29.4049 16.315 29.4406 16.3318 29.4724C16.6883 30.1351 17.2175 30.689 17.8634 31.0753C18.5092 31.4616 19.2475 31.6659 20 31.6666Z" fill="#979797"/>
</svg>
