<svg width="40" height="40" viewBox="0 0 40 40" fill="none" xmlns="http://www.w3.org/2000/svg">
<rect width="40" height="40" rx="8" fill="#2556B5"/>
<path d="M29.5875 24.4431C29.5011 24.339 29.4162 24.2348 29.3328 24.1343C28.187 22.7484 27.4938 21.9119 27.4938 17.9885C27.4938 15.9572 27.0078 14.2905 26.05 13.0405C25.3438 12.1171 24.3891 11.4166 23.1307 10.8989C23.1146 10.8899 23.1001 10.8781 23.088 10.864C22.6354 9.34836 21.3969 8.33325 20 8.33325C18.6031 8.33325 17.3651 9.34836 16.9125 10.8624C16.9004 10.876 16.8862 10.8874 16.8703 10.8963C13.9339 12.1051 12.5068 14.4244 12.5068 17.9869C12.5068 21.9119 11.8146 22.7484 10.6677 24.1327C10.5844 24.2333 10.4995 24.3353 10.413 24.4416C10.1897 24.7109 10.0482 25.0386 10.0053 25.3858C9.96237 25.7331 10.0198 26.0854 10.1709 26.401C10.4922 27.078 11.1771 27.4984 11.9589 27.4984H28.0469C28.825 27.4984 29.5052 27.0786 29.8276 26.4046C29.9793 26.0889 30.0373 25.7364 29.9948 25.3887C29.9522 25.0411 29.8109 24.7129 29.5875 24.4431Z" fill="white"/>
<path d="M20 31.7761C20.7526 31.7755 21.4911 31.5712 22.137 31.1849C22.7829 30.7986 23.3122 30.2446 23.6688 29.5819C23.6856 29.5501 23.6939 29.5145 23.6929 29.4786C23.6918 29.4427 23.6816 29.4076 23.663 29.3769C23.6444 29.3461 23.6182 29.3207 23.5869 29.303C23.5557 29.2853 23.5203 29.2761 23.4844 29.2761H16.5167C16.4807 29.276 16.4453 29.2852 16.4139 29.3028C16.3826 29.3204 16.3563 29.3459 16.3377 29.3766C16.3191 29.4074 16.3087 29.4425 16.3077 29.4785C16.3067 29.5144 16.315 29.5501 16.3318 29.5819C16.6883 30.2446 17.2175 30.7985 17.8634 31.1848C18.5092 31.5711 19.2475 31.7754 20 31.7761Z" fill="white"/>
</svg>
